<svg preserveAspectRatio="none" width="100%" height="100%" overflow="visible" style="display: block;" viewBox="0 0 36 36" fill="none" xmlns="http://www.w3.org/2000/svg">
<g id="apple">
<g id="BG 135" opacity="0.58">
</g>
<g id="Group">
<path id="Vector" fill-rule="evenodd" clip-rule="evenodd" d="M28.65 28.74C29.535 27.39 29.865 26.7 30.54 25.185C25.56 23.295 24.765 16.2 29.685 13.485C28.185 11.595 26.07 10.5 24.075 10.5C22.635 10.5 21.645 10.875 20.76 11.22C20.01 11.505 19.335 11.76 18.495 11.76C17.595 11.76 16.8 11.475 15.96 11.175C15.045 10.845 14.085 10.5 12.885 10.5C10.65 10.5 8.265 11.865 6.75 14.205C4.62 17.505 4.995 23.685 8.43 28.965C9.66 30.855 11.31 32.97 13.455 33C14.355 33.015 14.94 32.745 15.585 32.46C16.32 32.13 17.115 31.77 18.51 31.77C19.905 31.755 20.685 32.13 21.42 32.46C22.05 32.745 22.62 33.015 23.505 33C25.68 32.97 27.42 30.63 28.65 28.74Z" fill="var(--fill-0, #2E3345)"/>
</g>
<path id="Vector_2" fill-rule="evenodd" clip-rule="evenodd" d="M23.76 3C24 4.65 23.325 6.28502 22.44 7.42502C21.495 8.65502 19.845 9.61499 18.255 9.55499C17.97 7.96499 18.705 6.32999 19.605 5.23499C20.61 4.03499 22.305 3.105 23.76 3Z" fill="var(--fill-0, #2E3345)"/>
<g id="Vector_3" opacity="0">
</g>
</g>
</svg>
