<svg preserveAspectRatio="none" width="100%" height="100%" overflow="visible" style="display: block;" viewBox="0 0 160 40" fill="none" xmlns="http://www.w3.org/2000/svg">
<path id="Union" d="M10.8517 8.97436C12.2768 8.97436 13.6879 9.25962 15.0044 9.8137C16.321 10.3678 17.5173 11.18 18.525 12.2038C19.5327 13.2276 20.332 14.4431 20.8774 15.7807C21.4227 17.1184 21.7035 18.5521 21.7035 20C21.7035 21.4479 21.4227 22.8816 20.8774 24.2193C20.332 25.5569 19.5327 26.7724 18.525 27.7962C17.5173 28.8201 16.321 29.6322 15.0044 30.1863C13.6879 30.7404 12.2768 31.0256 10.8517 31.0256C9.42668 31.0256 8.01561 30.7404 6.69903 30.1863C5.93512 29.8648 5.21215 29.4558 4.54259 28.9696V40H0V19.4872H0.0118297C0.0701726 18.2144 0.345241 16.9603 0.826104 15.7807C1.37145 14.4431 2.1708 13.2276 3.17848 12.2038C4.18616 11.18 5.38244 10.3678 6.69903 9.8137C8.01561 9.25962 9.42668 8.97436 10.8517 8.97436ZM30.2839 20.0108C30.2839 21.7109 30.9486 23.3414 32.1318 24.5435C33.315 25.7457 34.9198 26.421 36.5931 26.421H38.8644V31.0364H36.5931C33.715 31.0364 30.9549 29.8747 28.9198 27.807C26.8847 25.7393 25.7413 22.9349 25.7413 20.0108V0H30.2839V20.0108ZM125.174 8.97436H133.754V13.5897H125.174V20.0108C125.174 21.7109 125.838 23.3414 127.021 24.5435C128.205 25.7457 129.809 26.421 131.483 26.421H133.754V31.0364H131.483C128.605 31.0364 125.844 29.8747 123.809 27.807C121.774 25.7393 120.631 22.9349 120.631 20.0108V0H125.174V8.97436ZM53.7539 8.97436C55.179 8.97436 56.5901 9.25962 57.9066 9.8137C59.2232 10.3678 60.4195 11.18 61.4272 12.2038C62.4349 13.2276 63.2342 14.4431 63.7796 15.7807C64.2604 16.9603 64.5353 18.2144 64.5936 19.4872H64.6057V31.0256H60.0631V28.9696C59.3935 29.4558 58.6706 29.8648 57.9066 30.1863C56.5901 30.7404 55.179 31.0256 53.7539 31.0256C52.3289 31.0256 50.9178 30.7404 49.6012 30.1863C48.2847 29.6322 47.0884 28.8201 46.0807 27.7962C45.073 26.7724 44.2737 25.5569 43.7283 24.2193C43.183 22.8816 42.9022 21.4479 42.9022 20L42.9054 19.7288C42.9382 18.3733 43.217 17.0349 43.7283 15.7807C44.2737 14.4431 45.073 13.2276 46.0807 12.2038C47.0884 11.18 48.2847 10.3678 49.6012 9.8137C50.9178 9.25962 52.3289 8.97436 53.7539 8.97436ZM80 8.97436C81.4251 8.97436 82.8361 9.25962 84.1527 9.8137C85.4693 10.3678 86.6656 11.18 87.6733 12.2038C88.6809 13.2276 89.4803 14.4431 90.0256 15.7807C90.571 17.1184 90.8517 18.5521 90.8517 20V31.0256H86.3092V20C86.3092 19.1582 86.1459 18.3246 85.8288 17.5468C85.5117 16.7691 85.0471 16.0625 84.4613 15.4672C83.8754 14.872 83.1799 14.3999 82.4145 14.0778C81.649 13.7556 80.8285 13.5897 80 13.5897C79.1715 13.5897 78.351 13.7556 77.5855 14.0778C76.8201 14.3999 76.1246 14.872 75.5387 15.4672C74.9529 16.0625 74.4883 16.7691 74.1712 17.5468C73.8541 18.3246 73.6909 19.1582 73.6909 20V31.0256H69.1483V20C69.1483 18.5521 69.429 17.1184 69.9744 15.7807C70.5197 14.4431 71.3191 13.2276 72.3267 12.2038C73.3344 11.18 74.5307 10.3678 75.8473 9.8137C77.1639 9.25962 78.5749 8.97436 80 8.97436ZM103.624 9.1862C105.729 8.76079 107.911 8.97922 109.894 9.8137C111.877 10.6482 113.572 12.0613 114.764 13.8744C115.957 15.6876 116.593 17.8193 116.593 20V22.3077H99.8556C99.8741 22.3563 99.8928 22.4049 99.9125 22.4532C100.39 23.6244 101.199 24.6257 102.236 25.33C103.274 26.0344 104.493 26.4103 105.741 26.4103H108.013V31.0256H105.741C103.595 31.0256 101.497 30.3789 99.7124 29.1674C97.9279 27.9559 96.537 26.2339 95.7157 24.2193C94.8944 22.2046 94.6794 19.9878 95.0981 17.8491C95.5168 15.7103 96.5504 13.7457 98.0681 12.2038C99.5857 10.6618 101.519 9.61163 103.624 9.1862ZM149.148 8.97436C150.573 8.97436 151.984 9.25962 153.301 9.8137C154.618 10.3678 155.814 11.18 156.822 12.2038C157.829 13.2276 158.629 14.4431 159.174 15.7807C159.655 16.9603 159.93 18.2144 159.988 19.4872H160V31.0256H155.457V28.9696C154.788 29.4558 154.065 29.8648 153.301 30.1863C151.984 30.7404 150.573 31.0256 149.148 31.0256C147.723 31.0256 146.312 30.7404 144.996 30.1863C143.679 29.6322 142.483 28.8201 141.475 27.7962C140.467 26.7724 139.668 25.5569 139.123 24.2193C138.577 22.8816 138.297 21.4479 138.297 20L138.3 19.7288C138.333 18.3733 138.611 17.0349 139.123 15.7807C139.668 14.4431 140.467 13.2276 141.475 12.2038C142.483 11.18 143.679 10.3678 144.996 9.8137C146.312 9.25962 147.723 8.97436 149.148 8.97436ZM10.8517 13.5897C10.0232 13.5897 9.20271 13.7556 8.43725 14.0778C7.67183 14.3999 6.97631 14.872 6.39048 15.4672C5.80464 16.0625 5.33998 16.7691 5.02292 17.5468C4.70586 18.3246 4.54259 19.1582 4.54259 20L4.54456 20.1578C4.56365 20.9458 4.72568 21.7241 5.02292 22.4532C5.33998 23.2309 5.80464 23.9375 6.39048 24.5328C6.97631 25.128 7.67183 25.6001 8.43725 25.9222C9.20271 26.2444 10.0232 26.4103 10.8517 26.4103C11.6803 26.4103 12.5008 26.2444 13.2662 25.9222C14.0316 25.6001 14.7272 25.128 15.313 24.5328C15.8988 23.9375 16.3635 23.2309 16.6805 22.4532C16.9976 21.6754 17.1609 20.8418 17.1609 20C17.1609 19.1582 16.9976 18.3246 16.6805 17.5468C16.3635 16.7691 15.8988 16.0625 15.313 15.4672C14.7272 14.872 14.0316 14.3999 13.2662 14.0778C12.5008 13.7556 11.6803 13.5897 10.8517 13.5897ZM53.7539 13.5897C52.9254 13.5897 52.1049 13.7556 51.3395 14.0778C50.574 14.3999 49.8785 14.872 49.2927 15.4672C48.7069 16.0625 48.2422 16.7691 47.9251 17.5468C47.6081 18.3246 47.4448 19.1582 47.4448 20L47.4468 20.1578C47.4659 20.9458 47.6279 21.7241 47.9251 22.4532C48.2422 23.2309 48.7069 23.9375 49.2927 24.5328C49.8785 25.128 50.574 25.6001 51.3395 25.9222C52.1049 26.2444 52.9254 26.4103 53.7539 26.4103C54.5825 26.4103 55.403 26.2444 56.1684 25.9222C56.9339 25.6001 57.6294 25.128 58.2152 24.5328C58.801 23.9375 59.2657 23.2309 59.5828 22.4532C59.8998 21.6754 60.0631 20.8418 60.0631 20C60.0631 19.1582 59.8998 18.3246 59.5828 17.5468C59.2657 16.7691 58.801 16.0625 58.2152 15.4672C57.6294 14.872 56.9339 14.3999 56.1684 14.0778C55.403 13.7556 54.5825 13.5897 53.7539 13.5897ZM149.148 13.5897C148.32 13.5897 147.499 13.7556 146.734 14.0778C145.968 14.3999 145.273 14.872 144.687 15.4672C144.101 16.0625 143.637 16.7691 143.319 17.5468C143.002 18.3246 142.839 19.1582 142.839 20L142.841 20.1578C142.86 20.9458 143.022 21.7241 143.319 22.4532C143.637 23.2309 144.101 23.9375 144.687 24.5328C145.273 25.128 145.968 25.6001 146.734 25.9222C147.499 26.2444 148.32 26.4103 149.148 26.4103C149.977 26.4103 150.797 26.2444 151.563 25.9222C152.328 25.6001 153.024 25.128 153.61 24.5328C154.195 23.9375 154.66 23.2309 154.977 22.4532C155.294 21.6754 155.457 20.8418 155.457 20C155.457 19.1582 155.294 18.3246 154.977 17.5468C154.66 16.7691 154.195 16.0625 153.61 15.4672C153.024 14.872 152.328 14.3999 151.563 14.0778C150.797 13.7556 149.977 13.5897 149.148 13.5897ZM108.156 14.0778C107.003 13.5926 105.734 13.4656 104.511 13.7129C103.287 13.9603 102.162 14.5708 101.28 15.4672C100.655 16.1026 100.171 16.8615 99.8556 17.6923H111.628C111.461 17.2539 111.247 16.8332 110.987 16.4386C110.294 15.3844 109.309 14.563 108.156 14.0778Z" fill="var(--fill-0, #6788EC)"/>
</svg>
