<svg preserveAspectRatio="none" width="100%" height="100%" overflow="visible" style="display: block;" viewBox="0 0 116 29" fill="none" xmlns="http://www.w3.org/2000/svg">
<path id="Union" d="M7.86751 6.50641C8.90067 6.50641 9.92369 6.71323 10.8782 7.11493C11.8327 7.51665 12.7001 8.10546 13.4306 8.84774C14.1612 9.59001 14.7407 10.4712 15.1361 11.441C15.5315 12.4109 15.735 13.4503 15.735 14.5C15.735 15.5497 15.5315 16.5891 15.1361 17.559C14.7407 18.5288 14.1612 19.41 13.4306 20.1523C12.7001 20.8945 11.8327 21.4833 10.8782 21.8851C9.92369 22.2868 8.90067 22.4936 7.86751 22.4936C6.83434 22.4936 5.81132 22.2868 4.8568 21.8851C4.30296 21.652 3.77881 21.3554 3.29338 21.003V29H0V14.1282H0.0085765C0.0508751 13.2055 0.2503 12.2962 0.598925 11.441C0.994305 10.4712 1.57383 9.59001 2.3044 8.84774C3.03496 8.10546 3.90227 7.51665 4.8568 7.11493C5.81132 6.71323 6.83434 6.50641 7.86751 6.50641ZM21.9558 14.5078C21.9558 15.7404 22.4377 16.9225 23.2956 17.7941C24.1534 18.6656 25.3168 19.1552 26.53 19.1552H28.1767V22.5014H26.53C24.4434 22.5014 22.4423 21.6592 20.9669 20.1601C19.4914 18.661 18.6625 16.6278 18.6625 14.5078V0H21.9558V14.5078ZM90.7508 6.50641H96.9716V9.85256H90.7508V14.5078C90.7508 15.7404 91.2327 16.9225 92.0905 17.7941C92.9483 18.6656 94.1118 19.1552 95.3249 19.1552H96.9716V22.5014H95.3249C93.2383 22.5014 91.2372 21.6592 89.7618 20.1601C88.2864 18.661 87.4574 16.6278 87.4574 14.5078V0H90.7508V6.50641ZM38.9716 6.50641C40.0048 6.50641 41.0278 6.71323 41.9823 7.11493C42.9368 7.51665 43.8042 8.10546 44.5347 8.84774C45.2653 9.59001 45.8448 10.4712 46.2402 11.441C46.5888 12.2962 46.7881 13.2055 46.8304 14.1282H46.8391V22.4936H43.5457V21.003C43.0603 21.3554 42.5362 21.652 41.9823 21.8851C41.0278 22.2868 40.0048 22.4936 38.9716 22.4936C37.9384 22.4936 36.9154 22.2868 35.9609 21.8851C35.0064 21.4833 34.1391 20.8945 33.4085 20.1523C32.6779 19.41 32.0984 18.5288 31.703 17.559C31.3077 16.5891 31.1041 15.5497 31.1041 14.5L31.1064 14.3034C31.1302 13.3207 31.3324 12.3503 31.703 11.441C32.0984 10.4712 32.6779 9.59001 33.4085 8.84774C34.1391 8.10546 35.0064 7.51665 35.9609 7.11493C36.9154 6.71323 37.9384 6.50641 38.9716 6.50641ZM58 6.50641C59.0332 6.50641 60.0562 6.71323 61.0107 7.11493C61.9652 7.51665 62.8325 8.10546 63.5631 8.84774C64.2937 9.59001 64.8732 10.4712 65.2686 11.441C65.6639 12.4109 65.8675 13.4503 65.8675 14.5V22.4936H62.5741V14.5C62.5741 13.8897 62.4558 13.2853 62.2259 12.7214C61.996 12.1576 61.6591 11.6453 61.2344 11.2138C60.8097 10.7822 60.3054 10.4399 59.7505 10.2064C59.1955 9.97283 58.6007 9.85256 58 9.85256C57.3993 9.85256 56.8045 9.97283 56.2495 10.2064C55.6946 10.4399 55.1903 10.7822 54.7656 11.2138C54.3409 11.6453 54.004 12.1576 53.7741 12.7214C53.5442 13.2853 53.4259 13.8897 53.4259 14.5V22.4936H50.1325V14.5C50.1325 13.4503 50.336 12.4109 50.7314 11.441C51.1268 10.4712 51.7063 9.59001 52.4369 8.84774C53.1675 8.10546 54.0348 7.51665 54.9893 7.11493C55.9438 6.71323 56.9668 6.50641 58 6.50641ZM75.1276 6.65999C76.6537 6.35157 78.2356 6.50993 79.6732 7.11493C81.1108 7.71994 82.3395 8.74445 83.204 10.059C84.0685 11.3735 84.53 12.919 84.53 14.5V16.1731H72.3953C72.4087 16.2083 72.4223 16.2436 72.4366 16.2786C72.7828 17.1277 73.369 17.8536 74.1211 18.3643C74.8733 18.8749 75.7578 19.1474 76.6625 19.1474H78.3091V22.4936H76.6625C75.1064 22.4936 73.5853 22.0247 72.2915 21.1464C70.9977 20.268 69.9893 19.0196 69.3939 17.559C68.7984 16.0983 68.6426 14.4911 68.9461 12.9406C69.2497 11.39 69.9991 9.96566 71.0993 8.84774C72.1996 7.72981 73.6015 6.96843 75.1276 6.65999ZM108.132 6.50641C109.166 6.50641 110.189 6.71323 111.143 7.11493C112.098 7.51665 112.965 8.10546 113.696 8.84774C114.426 9.59001 115.006 10.4712 115.401 11.441C115.75 12.2962 115.949 13.2055 115.991 14.1282H116V22.4936H112.707V21.003C112.221 21.3554 111.697 21.652 111.143 21.8851C110.189 22.2868 109.166 22.4936 108.132 22.4936C107.099 22.4936 106.076 22.2868 105.122 21.8851C104.167 21.4833 103.3 20.8945 102.569 20.1523C101.839 19.41 101.259 18.5288 100.864 17.559C100.469 16.5891 100.265 15.5497 100.265 14.5L100.267 14.3034C100.291 13.3207 100.493 12.3503 100.864 11.441C101.259 10.4712 101.839 9.59001 102.569 8.84774C103.3 8.10546 104.167 7.51665 105.122 7.11493C106.076 6.71323 107.099 6.50641 108.132 6.50641ZM7.86751 9.85256C7.26682 9.85256 6.67197 9.97283 6.11701 10.2064C5.56208 10.4399 5.05783 10.7822 4.6331 11.2138C4.20837 11.6453 3.87149 12.1576 3.64162 12.7214C3.41175 13.2853 3.29338 13.8897 3.29338 14.5L3.2948 14.6144C3.30865 15.1857 3.42611 15.7499 3.64162 16.2786C3.87149 16.8424 4.20837 17.3547 4.6331 17.7862C5.05783 18.2178 5.56208 18.5601 6.11701 18.7936C6.67197 19.0272 7.26682 19.1474 7.86751 19.1474C8.46819 19.1474 9.06305 19.0272 9.61801 18.7936C10.1729 18.5601 10.6772 18.2178 11.1019 17.7862C11.5266 17.3547 11.8635 16.8424 12.0934 16.2786C12.3233 15.7147 12.4416 15.1103 12.4416 14.5C12.4416 13.8897 12.3233 13.2853 12.0934 12.7214C11.8635 12.1576 11.5266 11.6453 11.1019 11.2138C10.6772 10.7822 10.1729 10.4399 9.61801 10.2064C9.06305 9.97283 8.46819 9.85256 7.86751 9.85256ZM38.9716 9.85256C38.3709 9.85256 37.7761 9.97283 37.2211 10.2064C36.6662 10.4399 36.1619 10.7822 35.7372 11.2138C35.3125 11.6453 34.9756 12.1576 34.7457 12.7214C34.5158 13.2853 34.3975 13.8897 34.3975 14.5L34.3989 14.6144C34.4127 15.1857 34.5302 15.7499 34.7457 16.2786C34.9756 16.8424 35.3125 17.3547 35.7372 17.7862C36.1619 18.2178 36.6662 18.5601 37.2211 18.7936C37.7761 19.0272 38.3709 19.1474 38.9716 19.1474C39.5723 19.1474 40.1671 19.0272 40.7221 18.7936C41.277 18.5601 41.7813 18.2178 42.206 17.7862C42.6307 17.3547 42.9676 16.8424 43.1975 16.2786C43.4274 15.7147 43.5457 15.1103 43.5457 14.5C43.5457 13.8897 43.4274 13.2853 43.1975 12.7214C42.9676 12.1576 42.6307 11.6453 42.206 11.2138C41.7813 10.7822 41.277 10.4399 40.7221 10.2064C40.1671 9.97283 39.5723 9.85256 38.9716 9.85256ZM108.132 9.85256C107.532 9.85256 106.937 9.97283 106.382 10.2064C105.827 10.4399 105.323 10.7822 104.898 11.2138C104.473 11.6453 104.136 12.1576 103.907 12.7214C103.677 13.2853 103.558 13.8897 103.558 14.5L103.56 14.6144C103.574 15.1857 103.691 15.7499 103.907 16.2786C104.136 16.8424 104.473 17.3547 104.898 17.7862C105.323 18.2178 105.827 18.5601 106.382 18.7936C106.937 19.0272 107.532 19.1474 108.132 19.1474C108.733 19.1474 109.328 19.0272 109.883 18.7936C110.438 18.5601 110.942 18.2178 111.367 17.7862C111.792 17.3547 112.129 16.8424 112.358 16.2786C112.588 15.7147 112.707 15.1103 112.707 14.5C112.707 13.8897 112.588 13.2853 112.358 12.7214C112.129 12.1576 111.792 11.6453 111.367 11.2138C110.942 10.7822 110.438 10.4399 109.883 10.2064C109.328 9.97283 108.733 9.85256 108.132 9.85256ZM78.413 10.2064C77.5772 9.85464 76.6574 9.76257 75.7701 9.94188C74.8829 10.1212 74.0677 10.5638 73.428 11.2138C72.9747 11.6744 72.624 12.2246 72.3953 12.8269H80.93C80.8093 12.5091 80.654 12.2041 80.4658 11.9179C79.9632 11.1537 79.2487 10.5581 78.413 10.2064Z" fill="var(--fill-0, #6788EC)"/>
</svg>
