<svg preserveAspectRatio="none" width="100%" height="100%" overflow="visible" style="display: block;" viewBox="0 0 19.5 19.5" fill="none" xmlns="http://www.w3.org/2000/svg">
<g id="Download">
<path id="Vector" d="M4.96784 18.6884L4.85051 19.4292H4.85051L4.96784 18.6884ZM0.811567 14.5322L1.55233 14.4148V14.4148L0.811567 14.5322ZM18.6885 14.5322L19.4292 14.6495V14.6495L18.6885 14.5322ZM14.5322 18.6884L14.6495 19.4292H14.6495L14.5322 18.6884ZM18.35 8.29957C18.1013 7.96837 17.6311 7.90156 17.2999 8.15032C16.9688 8.39909 16.9019 8.86924 17.1507 9.20043L17.7504 8.75L18.35 8.29957ZM2.34932 9.20043C2.59808 8.86924 2.53127 8.39909 2.20008 8.15032C1.86888 7.90156 1.39874 7.96838 1.14997 8.29957L1.74964 8.75L2.34932 9.20043ZM10.5 0.75C10.5 0.335786 10.1642 0 9.75001 0C9.3358 0 9.00001 0.335786 9.00001 0.75H9.75001H10.5ZM6.33769 10.284C6.08034 9.95946 5.60861 9.90497 5.28404 10.1623C4.95947 10.4197 4.90498 10.8914 5.16232 11.216L5.75001 10.75L6.33769 10.284ZM7.14785 12.513L6.56017 12.9789V12.9789L7.14785 12.513ZM12.3522 12.513L11.7645 12.047V12.047L12.3522 12.513ZM14.3377 11.216C14.595 10.8914 14.5405 10.4197 14.216 10.1623C13.8914 9.90497 13.4197 9.95946 13.1623 10.284L13.75 10.75L14.3377 11.216ZM9.49934 14.7301L9.38134 15.4708L9.38134 15.4708L9.49934 14.7301ZM10.0007 14.7301L10.1187 15.4708L10.1187 15.4708L10.0007 14.7301ZM18.75 11.75H18V12.75H18.75H19.5V11.75H18.75ZM12.75 18.75V18H6.75001V18.75V19.5H12.75V18.75ZM0.750008 12.75H1.50001V11.75H0.750008H8.34465e-06V12.75H0.750008ZM6.75001 18.75V18C5.79234 18 5.40083 17.9977 5.08516 17.9477L4.96784 18.6884L4.85051 19.4292C5.31217 19.5023 5.84966 19.5 6.75001 19.5V18.75ZM0.750008 12.75H8.34465e-06C8.34465e-06 13.6503 -0.00231928 14.1878 0.0708004 14.6495L0.811567 14.5322L1.55233 14.4148C1.50234 14.0992 1.50001 13.7077 1.50001 12.75H0.750008ZM4.96784 18.6884L5.08516 17.9477C3.26662 17.6596 1.84036 16.2334 1.55233 14.4148L0.811567 14.5322L0.0708004 14.6495C0.460487 17.1099 2.39013 19.0395 4.85051 19.4292L4.96784 18.6884ZM18.75 12.75H18C18 13.7077 17.9977 14.0992 17.9477 14.4148L18.6885 14.5322L19.4292 14.6495C19.5023 14.1878 19.5 13.6503 19.5 12.75H18.75ZM12.75 18.75V19.5C13.6504 19.5 14.1878 19.5023 14.6495 19.4292L14.5322 18.6884L14.4149 17.9477C14.0992 17.9977 13.7077 18 12.75 18V18.75ZM18.6885 14.5322L17.9477 14.4148C17.6597 16.2334 16.2334 17.6596 14.4149 17.9477L14.5322 18.6884L14.6495 19.4292C17.1099 19.0395 19.0395 17.1099 19.4292 14.6495L18.6885 14.5322ZM18.75 11.75H19.5C19.5 10.4564 19.0719 9.26065 18.35 8.29957L17.7504 8.75L17.1507 9.20043C17.6842 9.91067 18 10.7924 18 11.75H18.75ZM0.750008 11.75H1.50001C1.50001 10.7924 1.81583 9.91067 2.34932 9.20043L1.74964 8.75L1.14997 8.29957C0.428072 9.26065 8.34465e-06 10.4564 8.34465e-06 11.75H0.750008ZM9.75001 0.75H9.00001V13.75H9.75001H10.5V0.75H9.75001ZM5.75001 10.75L5.16232 11.216L6.56017 12.9789L7.14785 12.513L7.73554 12.047L6.33769 10.284L5.75001 10.75ZM12.3522 12.513L12.9398 12.9789L14.3377 11.216L13.75 10.75L13.1623 10.284L11.7645 12.047L12.3522 12.513ZM7.14785 12.513L6.56017 12.9789C7.10617 13.6676 7.55475 14.2352 7.95552 14.6375C8.35963 15.0432 8.80817 15.3794 9.38134 15.4708L9.49934 14.7301L9.61735 13.9895C9.51117 13.9725 9.34133 13.9032 9.01823 13.5789C8.69178 13.2512 8.3043 12.7643 7.73554 12.047L7.14785 12.513ZM12.3522 12.513L11.7645 12.047C11.1957 12.7643 10.8082 13.2512 10.4818 13.5789C10.1587 13.9032 9.98885 13.9725 9.88267 13.9895L10.0007 14.7301L10.1187 15.4708C10.6919 15.3794 11.1404 15.0432 11.5445 14.6375C11.9453 14.2352 12.3939 13.6675 12.9398 12.9789L12.3522 12.513ZM9.49934 14.7301L9.38134 15.4708C9.50345 15.4902 9.62662 15.5 9.75001 15.5V14.75V14C9.70595 14 9.66169 13.9965 9.61735 13.9895L9.49934 14.7301ZM9.75001 14.75V15.5C9.87339 15.5 9.99657 15.4902 10.1187 15.4708L10.0007 14.7301L9.88267 13.9895C9.83833 13.9965 9.79406 14 9.75001 14V14.75ZM9.75001 13.75H9.00001V14.75H9.75001H10.5V13.75H9.75001Z" fill="var(--stroke-0, white)"/>
</g>
</svg>
