<svg width="145" height="47" viewBox="0 0 145 47" fill="none" xmlns="http://www.w3.org/2000/svg">
<g opacity="0.6">
<path d="M132.105 39.173C124.644 39.173 119.897 35.6234 119.67 28.7472H124.19C124.19 32.9629 127.537 35.18 132.285 35.18H132.736C136.987 35.18 139.291 33.0944 139.291 30.5209C139.291 27.9473 137.663 26.5279 134.319 25.8617L129.256 24.8412C124.19 23.8207 121.252 21.0265 121.252 16.1C121.252 11.1735 125.73 7.2251 132.557 7.2251C139.384 7.2251 144.041 10.9974 144.268 16.9868H139.748C139.521 13.4373 136.628 11.2181 132.784 11.2181H132.332C128.398 11.2181 125.777 13.3036 125.777 16.0554C125.777 18.4508 127.451 19.8723 130.118 20.4048L135.182 21.3808C140.653 22.4458 143.818 25.2846 143.818 30.3448C143.818 35.8017 139.116 39.1751 132.11 39.1751M97.2595 11.6615V22.3101H105.624C109.468 22.3101 111.727 19.8702 111.727 16.7641C111.727 13.4352 109.466 11.6615 105.624 11.6615H97.2595ZM97.2595 38.7274H92.7389V7.66852H106.303C112.181 7.66852 116.25 11.2181 116.25 16.1C116.25 20.0929 113.988 23.0654 111.05 23.9522C114.667 23.9522 115.798 25.1955 115.798 28.3016V38.7295H111.277V29.4112C111.277 26.9713 110.598 26.3051 108.112 26.3051H97.2595V38.7295V38.7274ZM74.2351 39.1709C66.0976 39.1709 62.2537 34.5117 62.2537 27.6354V7.66852H66.7743V27.192C66.7743 32.2946 69.2605 35.1779 74.0081 35.1779H74.4599C79.2075 35.1779 81.6937 32.2946 81.6937 27.192V7.66852H86.2142V27.6354C86.2142 34.5138 82.1455 39.1709 74.2329 39.1709H74.2351ZM59.5513 38.7274H53.9001L43.3651 23.6403L37.8479 29.1418V38.7274H33.3273V7.66852H37.8479V23.0654L53.4461 7.66852H59.3243L46.6188 20.3603L59.5513 38.7295V38.7274ZM14.817 11.7506L8.84795 26.7486H20.7839L14.8148 11.7506H14.817ZM30.2358 38.7295H25.5336L22.3686 30.7436H7.26759L4.10255 38.7295H-0.508818L12.0152 7.66852H17.8026L30.2358 38.7295ZM-21.6113 11.6615V22.3101H-13.2468C-9.40294 22.3101 -7.14373 19.8702 -7.14373 16.7641C-7.14373 13.4352 -9.4051 11.6615 -13.2468 11.6615H-21.6113ZM-21.6113 38.7274H-26.1318V7.66852H-12.568C-6.68973 7.66852 -2.62101 11.2181 -2.62101 16.1C-2.62101 20.0929 -4.88237 23.0654 -7.82042 23.9522C-4.20353 23.9522 -3.07285 25.1955 -3.07285 28.3016V38.7295H-7.59341V29.4112C-7.59341 26.9713 -8.27225 26.3051 -10.7585 26.3051H-21.6113V38.7295V38.7274Z" fill="#2E3345"/>
</g>
</svg>
