<svg width="683" height="523" viewBox="0 0 683 523" fill="none" xmlns="http://www.w3.org/2000/svg">
<g opacity="0.1">
<rect x="140" y="35" width="444" height="444" rx="133.2" fill="#6788EC"/>
</g>
<g opacity="0.1">
<rect x="210" y="105" width="304" height="304" rx="91.2" fill="#6788EC"/>
</g>
<g opacity="0.1">
<rect x="274" y="169" width="176" height="176" rx="52.8" fill="#6788EC"/>
</g>
<g filter="url(#filter0_dddd_225_2861)">
<rect x="322" y="217" width="80" height="80" rx="24" fill="#6788EC"/>
<path d="M361.128 253.681C362.68 253.681 364.216 253.984 365.649 254.573C367.083 255.161 368.385 256.023 369.482 257.111C370.579 258.198 371.449 259.488 372.043 260.909C372.637 262.329 372.942 263.851 372.942 265.389C372.942 266.926 372.637 268.448 372.043 269.869C371.449 271.289 370.579 272.58 369.482 273.667C368.385 274.754 367.083 275.616 365.649 276.205C364.216 276.793 362.68 277.096 361.128 277.096C359.577 277.096 358.041 276.793 356.608 276.205C355.776 275.863 354.989 275.429 354.26 274.913V286.625H349.314V264.844H349.327C349.391 263.493 349.69 262.161 350.214 260.909C350.808 259.488 351.678 258.198 352.775 257.111C353.872 256.023 355.174 255.161 356.608 254.573C358.041 253.984 359.577 253.681 361.128 253.681ZM382.284 265.4C382.284 267.205 383.007 268.937 384.295 270.213C385.584 271.49 387.331 272.207 389.152 272.207H391.625V277.107H389.152C386.019 277.107 383.014 275.874 380.799 273.678C378.583 271.483 377.338 268.505 377.338 265.4V244.152H382.284V265.4ZM361.128 258.582C360.226 258.582 359.333 258.758 358.5 259.1C357.667 259.442 356.909 259.944 356.272 260.576C355.634 261.208 355.128 261.958 354.783 262.784C354.438 263.61 354.26 264.495 354.26 265.389L354.262 265.556C354.283 266.393 354.459 267.219 354.783 267.993C355.128 268.819 355.634 269.57 356.272 270.202C356.909 270.834 357.667 271.335 358.5 271.677C359.333 272.019 360.226 272.195 361.128 272.195C362.03 272.195 362.924 272.019 363.757 271.677C364.59 271.335 365.348 270.834 365.985 270.202C366.623 269.57 367.129 268.819 367.474 267.993C367.819 267.168 367.997 266.283 367.997 265.389C367.997 264.495 367.819 263.61 367.474 262.784C367.129 261.958 366.623 261.208 365.985 260.576C365.348 259.944 364.59 259.442 363.757 259.1C362.924 258.758 362.03 258.582 361.128 258.582Z" fill="white"/>
</g>
<g filter="url(#filter1_dddd_225_2861)">
<rect x="256" y="56" width="80" height="80" rx="24" fill="white"/>
<g clip-path="url(#clip0_225_2861)">
<mask id="mask0_225_2861" style="mask-type:luminance" maskUnits="userSpaceOnUse" x="32" y="19" width="531" height="531">
<path d="M32.6738 549.465H562.919V19.2197H32.6738V549.465Z" fill="white"/>
</mask>
<g mask="url(#mask0_225_2861)">
<path d="M297.058 106.023C295.976 105.951 294.728 105.761 293.744 105.476C293.559 105.422 292.796 105.142 292.602 105.053C289.175 103.466 286.788 100 286.788 95.9805C286.788 90.4667 291.274 85.9755 296.791 85.9755C302.259 85.9755 306.715 90.3901 306.792 95.8415H310.405C310.329 88.3984 304.253 82.3662 296.791 82.3662C289.285 82.3662 283.175 88.4723 283.175 95.9805C283.175 101.157 286.086 105.659 290.348 107.958C291.118 108.366 292.222 108.785 292.597 108.9C293.812 109.262 295.303 109.502 296.631 109.603C297.081 109.637 298.655 109.654 299.114 109.656H324V106.057H299.156C298.825 106.057 297.382 106.044 297.058 106.023ZM299.156 100.371C298.893 100.371 297.519 100.362 297.265 100.341C296.835 100.304 296.211 100.24 295.81 100.148C295.358 100.027 294.933 99.8668 294.741 99.7617C293.399 99.0358 292.484 97.6159 292.484 95.9805C292.484 93.6013 294.411 91.6719 296.791 91.6719C299.121 91.6719 301.016 93.5256 301.092 95.8415H304.564C304.491 91.6104 301.042 88.2006 296.791 88.2006C292.493 88.2006 289.009 91.6835 289.009 95.9805C289.009 99.0108 290.746 101.628 293.276 102.91C293.665 103.138 294.398 103.376 294.606 103.431C295.32 103.619 296.28 103.747 297.058 103.804C297.346 103.828 298.755 103.839 299.053 103.841V103.846H323.999V100.371H299.156ZM280.948 109.643H277.31V85.9835H271.994V82.3448H280.948V109.643ZM268 87.8016V91.3005H271.994V109.643H275.489V87.8016H268Z" fill="#D91920"/>
<path d="M317.572 82.5996C316.262 82.5996 315.175 83.6444 315.175 84.9556C315.175 86.2668 316.262 87.3535 317.572 87.3535C318.922 87.3535 319.967 86.2668 319.967 84.9556C319.967 83.6444 318.922 82.5996 317.572 82.5996ZM317.572 86.9669C316.49 86.9669 315.557 86.1163 315.557 84.9556C315.557 83.8537 316.49 82.9817 317.572 82.9817C318.653 82.9817 319.581 83.8537 319.581 84.9556C319.581 86.1163 318.653 86.9669 317.572 86.9669Z" fill="#D91920"/>
<path d="M318.485 85.601C318.485 85.3365 318.446 85.0906 318.143 84.9935C318.522 84.8617 318.56 84.6132 318.56 84.4626C318.56 83.8543 318.007 83.7768 317.78 83.7768H316.735V86.1328H317.171V85.1663H317.514C318.007 85.1663 318.048 85.3935 318.048 85.601C318.048 86.0028 318.048 86.0785 318.143 86.1328H318.579C318.485 86.0375 318.522 85.9636 318.485 85.601ZM317.685 84.8225H317.171V84.0805H317.611C317.916 84.0805 318.122 84.1767 318.122 84.4626C318.122 84.6132 318.048 84.8225 317.685 84.8225Z" fill="#D91920"/>
</g>
</g>
</g>
<g filter="url(#filter2_dddd_225_2861)">
<rect x="392" y="25" width="80" height="80" rx="24" fill="white"/>
<path d="M441.257 40.8805L449.653 38.2045L443.056 47.2617L441.257 40.8805Z" fill="#0C94FF"/>
<path d="M444.055 50.7623L441.257 40.8816L421.665 80.8158L444.055 50.7623Z" fill="#0B6FBD"/>
<path d="M444.056 50.7613L414.068 31L434.46 63.5237L444.056 50.7613Z" fill="#0C94FF"/>
<path d="M414.068 92.9157C414.189 93.8149 414.642 94.5342 415.427 95.0587C416.212 95.5832 417.194 95.853 418.387 95.853C420.561 95.853 422.025 94.9089 422.025 93.5152C422.025 92.1964 421.135 91.4771 418.326 90.9975C416.167 90.6378 415.639 90.3831 415.639 89.7836C415.639 89.0643 416.56 88.5098 417.783 88.5098C419.277 88.5098 420.35 89.1842 420.636 90.2632L421.784 90.0384C421.512 88.5698 419.821 87.4608 417.783 87.4608C415.835 87.4608 414.416 88.4798 414.416 89.7836C414.416 91.0574 415.261 91.6269 418.085 92.0765C420.289 92.4362 420.787 92.7658 420.787 93.5301C420.787 94.3094 419.881 94.804 418.387 94.804C416.575 94.804 415.473 94.0846 415.216 92.6609L414.068 92.9157ZM423.258 93.5002C423.258 94.9538 424.36 95.853 426.217 95.853C427.486 95.853 428.648 95.3584 429.192 94.6241H429.222V95.6282H430.415V90.0534C430.415 88.4798 429.116 87.4608 427.078 87.4608C426.066 87.4608 425.221 87.7155 424.541 88.2101C423.862 88.7047 423.454 89.364 423.303 90.1882L424.496 90.443C424.738 89.2442 425.689 88.5398 427.078 88.5398C428.301 88.5398 429.086 89.0343 429.086 89.7987C429.086 90.443 428.528 90.6978 426.504 91.0574C424.209 91.462 423.258 92.1214 423.258 93.5002ZM429.177 92.8558C429.177 93.8598 427.893 94.759 426.474 94.759C425.145 94.759 424.511 94.3544 424.511 93.5002C424.511 92.7359 425.191 92.3612 427.018 92.0016C428.346 91.7468 428.92 91.522 429.147 91.1174H429.177V92.8558ZM433.542 94.6391C434.191 95.4034 435.293 95.853 436.546 95.853C439.038 95.853 440.834 94.1146 440.834 91.6569C440.834 89.2741 439.022 87.4608 436.622 87.4608C435.369 87.4608 434.251 87.9104 433.587 88.6897H433.557V84.6884H432.319V95.6282H433.511V94.6391H433.542ZM439.596 91.6569C439.596 93.5601 438.388 94.774 436.471 94.774C434.84 94.774 433.557 93.65 433.557 92.2563V91.0574C433.557 89.6638 434.855 88.5398 436.546 88.5398C438.373 88.5398 439.596 89.7687 439.596 91.6569ZM444.239 99L449.932 87.6856H448.512L445.613 93.65H445.583L442.654 87.6856H441.22L444.919 94.9688L442.835 99H444.239Z" fill="#333333"/>
</g>
<g filter="url(#filter3_dddd_225_2861)">
<rect x="566" y="257" width="80" height="80" rx="24" fill="white"/>
<g clip-path="url(#clip1_225_2861)">
<path d="M594.488 298.441C594.34 299.389 593.534 300.182 592.57 300.327C591.82 300.44 591.087 300.207 590.558 299.688C590.03 299.168 589.793 298.448 589.908 297.71C590.055 296.763 590.862 295.971 591.826 295.825C592.579 295.714 593.309 295.946 593.837 296.465C594.366 296.984 594.603 297.704 594.488 298.441ZM594.992 295.33C594.093 294.446 592.848 294.046 591.579 294.239C589.901 294.492 588.551 295.819 588.294 297.467C588.099 298.715 588.504 299.938 589.404 300.822C590.155 301.561 591.147 301.96 592.194 301.96C592.402 301.96 592.611 301.944 592.817 301.913C594.494 301.661 595.845 300.333 596.102 298.685C596.297 297.437 595.892 296.214 594.992 295.33ZM586.448 299.113C585.707 299.902 584.652 300.355 583.555 300.355C581.392 300.355 579.633 298.641 579.633 296.536C579.633 294.429 581.392 292.716 583.555 292.716C584.647 292.716 585.698 293.165 586.439 293.948C586.747 294.274 587.264 294.29 587.593 293.989C587.923 293.687 587.942 293.179 587.635 292.855C586.586 291.747 585.099 291.111 583.555 291.111C580.492 291.111 578 293.545 578 296.536C578 299.526 580.492 301.96 583.555 301.96C585.106 301.96 586.598 301.319 587.648 300.202C587.954 299.876 587.933 299.369 587.602 299.068C587.271 298.768 586.754 298.787 586.448 299.113Z" fill="#06994F"/>
<path d="M625.111 294.221C624.657 294.221 624.29 294.582 624.29 295.027V301.219C624.29 301.664 624.657 302.025 625.111 302.025C625.564 302.025 625.931 301.664 625.931 301.219V295.027C625.931 294.582 625.564 294.221 625.111 294.221Z" fill="#392381"/>
<path d="M624.528 291.728C624.38 291.881 624.29 292.082 624.29 292.3C624.29 292.518 624.38 292.719 624.528 292.873C624.684 293.018 624.897 293.106 625.111 293.106C625.324 293.106 625.537 293.018 625.693 292.873C625.841 292.719 625.931 292.51 625.931 292.3C625.931 292.09 625.841 291.881 625.693 291.728C625.381 291.429 624.831 291.429 624.528 291.728Z" fill="#392381"/>
<path d="M633.51 299.622C633.177 299.32 632.658 299.339 632.35 299.668C631.905 300.141 631.272 300.413 630.613 300.413C629.314 300.413 628.258 299.386 628.258 298.123C628.258 296.86 629.314 295.833 630.613 295.833C631.278 295.833 631.893 296.096 632.345 296.573C632.654 296.9 633.172 296.918 633.505 296.614C633.836 296.311 633.855 295.801 633.547 295.475C632.792 294.678 631.723 294.221 630.613 294.221C628.409 294.221 626.617 295.971 626.617 298.123C626.617 300.275 628.409 302.025 630.613 302.025C631.728 302.025 632.801 301.565 633.556 300.761C633.864 300.435 633.843 299.924 633.51 299.622Z" fill="#392381"/>
<path d="M621.931 298.491C621.783 299.443 620.972 300.239 620.004 300.385C619.249 300.498 618.513 300.265 617.982 299.742C617.451 299.221 617.213 298.496 617.328 297.756C617.477 296.804 618.287 296.007 619.256 295.862C619.381 295.843 619.505 295.834 619.628 295.834C620.248 295.834 620.834 296.069 621.278 296.504C621.808 297.026 622.047 297.75 621.931 298.491ZM619.63 304.347C620.893 304.347 621.96 305.042 621.96 305.863C621.96 306.685 620.893 307.379 619.63 307.379C618.366 307.379 617.299 306.685 617.299 305.863C617.299 305.042 618.366 304.347 619.63 304.347ZM623.601 295.027C623.601 294.582 623.234 294.221 622.781 294.221H619.827C619.812 294.221 619.8 294.228 619.786 294.229C619.529 294.219 619.269 294.228 619.007 294.268C617.322 294.522 615.964 295.855 615.706 297.512C615.511 298.765 615.918 299.994 616.822 300.883C617.036 301.093 617.274 301.268 617.523 301.423C617.336 301.718 617.234 302.048 617.234 302.38C617.234 302.678 617.319 302.973 617.47 303.245C616.382 303.803 615.658 304.766 615.658 305.863C615.658 307.588 617.439 308.992 619.63 308.992C621.82 308.992 623.601 307.588 623.601 305.863C623.601 304.138 621.82 302.735 619.63 302.735C619.199 302.735 618.875 302.583 618.875 302.38C618.875 302.178 619.197 302.027 619.625 302.026C619.833 302.026 620.042 302.01 620.252 301.979C621.938 301.725 623.295 300.391 623.553 298.735C623.717 297.684 623.453 296.653 622.832 295.823C623.26 295.796 623.601 295.454 623.601 295.027Z" fill="#392381"/>
<path d="M613.225 298.491C613.077 299.443 612.266 300.24 611.298 300.386C610.543 300.499 609.807 300.265 609.276 299.743C608.745 299.222 608.507 298.497 608.622 297.756C608.771 296.805 609.581 296.008 610.55 295.862C611.306 295.751 612.04 295.983 612.571 296.505C613.102 297.026 613.341 297.75 613.225 298.491ZM613.732 295.365C612.828 294.476 611.577 294.074 610.301 294.269C608.616 294.522 607.258 295.856 607 297.512C606.805 298.766 607.211 299.995 608.116 300.883C608.871 301.626 609.868 302.027 610.919 302.027C611.127 302.027 611.336 302.011 611.546 301.979C612.179 301.884 612.766 301.636 613.266 301.276C613.297 301.694 613.642 302.026 614.075 302.026C614.528 302.026 614.895 301.665 614.895 301.22V298.246C614.895 298.239 614.892 298.234 614.892 298.228C614.921 297.155 614.513 296.133 613.732 295.365Z" fill="#392381"/>
<path d="M605.633 291.127C605.25 291.052 604.865 291.253 604.715 291.608L601.534 299.11L598.352 291.608C598.202 291.253 597.819 291.051 597.434 291.127C597.051 291.203 596.774 291.534 596.774 291.918V301.206C596.774 301.651 597.142 302.012 597.595 302.012C598.048 302.012 598.416 301.651 598.416 301.206V295.949L600.777 301.516C600.904 301.817 601.203 302.012 601.534 302.012C601.865 302.012 602.164 301.817 602.291 301.516L604.652 295.949V301.206C604.652 301.651 605.019 302.012 605.472 302.012C605.926 302.012 606.293 301.651 606.293 301.206V291.918C606.293 291.534 606.017 291.203 605.633 291.127Z" fill="#392381"/>
</g>
</g>
<g filter="url(#filter4_dddd_225_2861)">
<rect x="538" y="372" width="80" height="80" rx="24" fill="white"/>
<path d="M581.622 384L549.081 390.054V432.811L581.622 440V384ZM571.147 398.411V403.075L563.587 403.744V407.799H570.696V412.463H563.587V417.677L571.401 418.479V423.144L559.138 421.64V399.836L571.147 398.411Z" fill="#046DB2"/>
<path d="M584.444 395.307V399.769C584.818 399.777 585.181 399.784 585.591 399.796C586.754 399.829 588.282 401.428 589.002 402.672C589.292 403.173 588.2 404.211 588.2 404.211L586.126 402.94C585.602 402.853 585.029 402.789 584.444 402.777V410.192L587.531 413.241C588.751 415.123 587.155 414.583 584.444 412.631V421.277C585.103 421.206 585.736 420.985 586.201 420.515L591.686 414.963C594.618 413.063 591.694 417.978 586.669 423.325C586.176 423.849 585.436 424.109 584.444 424.228V429.018H603.441C605.368 429.018 606.919 427.636 606.919 425.919V398.406C606.919 396.689 605.368 395.307 603.441 395.307H584.444ZM598.369 399.733C599.569 399.738 600.997 399.811 602.662 399.855C602.662 399.855 602.805 402.131 602.662 407.146C602.629 408.308 601.03 409.836 599.785 410.557C599.285 410.846 598.247 409.754 598.247 409.754L599.517 407.681C599.746 406.298 599.82 404.581 599.183 403.199C598.205 402.75 595.895 402.326 594.702 403.533L589.217 409.086C586.285 410.986 589.209 406.071 594.234 400.724C595.004 399.905 596.369 399.725 598.369 399.733ZM593.244 409.641C594.271 409.688 597.891 412.214 601.733 415.825C603.044 417.057 602.72 419.814 602.603 424.253C602.603 424.253 600.327 424.396 595.312 424.253C594.15 424.22 592.621 422.621 591.901 421.376C591.611 420.876 592.703 419.839 592.703 419.839L594.777 421.109C596.159 421.338 597.876 421.411 599.258 420.774C599.708 419.797 600.132 417.486 598.924 416.293L593.372 410.808C592.838 409.984 592.842 409.622 593.244 409.641Z" fill="#046DB2"/>
</g>
<path d="M532.667 412C532.667 414.946 535.054 417.333 538 417.333C540.946 417.333 543.333 414.946 543.333 412C543.333 409.054 540.946 406.667 538 406.667C535.054 406.667 532.667 409.054 532.667 412ZM396.893 256.333C396.503 256.724 396.503 257.276 396.893 257.667L401.333 262.107C401.724 262.497 402.276 262.497 402.667 262.107L407.774 257L402.667 251.893C402.276 251.503 401.724 251.503 401.333 251.893L396.893 256.333ZM538 412V411H532V412V413H538V412ZM508 388H509V352H508H507V388H508ZM484 328V327H477V328V329H484V328ZM453 304H454V281H453H452V304H453ZM429 257V256H402V257V258H429V257ZM453 281H454C454 267.193 442.807 256 429 256V257V258C441.703 258 452 268.297 452 281H453ZM477 328V327C464.297 327 454 316.703 454 304H453H452C452 317.807 463.193 329 477 329V328ZM508 352H509C509 338.193 497.807 327 484 327V328V329C496.703 329 507 339.297 507 352H508ZM532 412V411C519.297 411 509 400.703 509 388H508H507C507 401.807 518.193 413 532 413V412Z" fill="#6788EC"/>
<g filter="url(#filter5_dddd_225_2861)">
<rect x="520" y="37" width="80" height="80" rx="24" fill="white"/>
<g clip-path="url(#clip2_225_2861)">
<path d="M574 49H546C538.268 49 532 55.268 532 63V91C532 98.732 538.268 105 546 105H574C581.732 105 588 98.732 588 91V63C588 55.268 581.732 49 574 49Z" fill="#00CCAE"/>
<path d="M549.882 61.752C550.434 59.8969 552.14 58.625 554.076 58.625H571.375C573.792 58.625 575.75 60.5838 575.75 63V91C575.75 93.4163 573.792 95.375 571.375 95.375H545.742C542.815 95.375 540.714 92.5571 541.549 89.752L549.882 61.752Z" fill="white"/>
<path d="M568 84.4375C568 84.9898 567.552 85.4375 567 85.4375C566.448 85.4375 566 84.9898 566 84.4375V67.9375H557.812C557.26 67.9375 556.812 67.4898 556.812 66.9375C556.812 66.3852 557.26 65.9375 557.812 65.9375H566.125C567.16 65.9375 568 66.777 568 67.8125V84.4375Z" fill="#222222"/>
<path d="M569.904 83.4375C570.874 83.4375 571.565 84.3792 571.276 85.3047V85.3057L570.081 89.1113C569.916 89.6382 569.355 89.9317 568.828 89.7666C568.302 89.6014 568.008 89.0405 568.173 88.5137L569.138 85.4375H551.736L552.701 88.5137C552.866 89.0405 552.573 89.6013 552.046 89.7666C551.519 89.9319 550.958 89.6383 550.792 89.1113L549.599 85.3057V85.3047C549.309 84.379 550 83.4377 550.97 83.4375H569.904Z" fill="#222222"/>
<path d="M561.75 77.3125C562.302 77.3125 562.75 77.7602 562.75 78.3125C562.75 78.8648 562.302 79.3125 561.75 79.3125H553.438C552.885 79.3125 552.438 78.8648 552.438 78.3125C552.438 77.7602 552.885 77.3125 553.438 77.3125H561.75Z" fill="#222222"/>
<path d="M561.75 72.0625C562.302 72.0625 562.75 72.5102 562.75 73.0625C562.75 73.6148 562.302 74.0625 561.75 74.0625H554.75C554.198 74.0625 553.75 73.6148 553.75 73.0625C553.75 72.5102 554.198 72.0625 554.75 72.0625H561.75Z" fill="#222222"/>
</g>
</g>
<g filter="url(#filter6_dddd_225_2861)">
<rect x="566" y="147" width="80" height="80" rx="24" fill="white"/>
<g clip-path="url(#clip3_225_2861)">
<path fill-rule="evenodd" clip-rule="evenodd" d="M609.486 183.317L625.131 198.732C632.239 189.767 632.212 176.824 624.714 167.762L609.486 183.317Z" fill="#1EB0CD"/>
<path fill-rule="evenodd" clip-rule="evenodd" d="M599.492 200.998L605.895 194.575L612.297 200.998H599.492ZM605.85 187.033L585.635 207.683C597.766 217.419 614.898 217.078 626.55 207.431L605.85 187.033Z" fill="#414141"/>
<path fill-rule="evenodd" clip-rule="evenodd" d="M621.241 164.341C611.55 156.588 597.392 157.289 588.519 166.354C579.645 175.419 579.2 189.634 587.101 199.216L621.241 164.341Z" fill="#1EB0CD"/>
</g>
</g>
<g filter="url(#filter7_dddd_225_2861)">
<rect x="395" y="369" width="80" height="80" rx="24" fill="white"/>
<path d="M413.841 390.487C416.34 387.366 419.37 385.788 423.156 384.745C424.527 384.357 425.926 384.078 427.341 383.912C428.808 383.75 430.833 383.743 432.281 384.037C432.858 384.155 433.77 384.525 434.324 384.754C436.478 385.663 438.549 386.758 440.514 388.026C441.252 388.502 441.994 389.068 442.729 389.561C443.28 389.932 443.86 390.283 444.404 390.655C445.161 391.183 445.9 391.739 446.618 392.32C448.361 393.724 450.198 395.744 451.331 397.687C451.682 398.29 452.001 398.978 452.311 399.605C452.49 399.965 452.751 400.847 452.959 401.11C453.227 401.447 453.83 401.932 454.153 402.279C454.343 402.484 454.588 402.921 454.725 403.028C455.146 403.354 455.884 403.587 456.399 403.813C457.761 404.404 459.112 405.021 460.45 405.665C460.946 405.908 461.621 406.206 462.059 406.513C462.614 407.007 462.943 407.708 462.971 408.451C462.984 408.769 462.899 409.115 462.715 409.371C460.92 411.878 458.326 414.098 456.019 416.076C455.539 416.481 455.067 416.893 454.601 417.314C454.392 417.501 454.182 417.658 453.988 417.864C453.826 418.032 453.726 418.116 453.63 418.33L453.602 418.392C453.482 418.664 453.363 419.148 453.273 419.449C453.12 419.94 452.944 420.423 452.746 420.897C452.454 421.583 452.071 422.238 451.763 422.918C451.684 423.093 451.576 423.313 451.481 423.474C450.04 425.906 448.26 428.171 445.981 429.868C445.701 430.077 445.398 430.258 445.124 430.48C444.643 430.919 444.203 431.192 443.662 431.547C443.471 431.694 443.107 431.917 442.873 431.963C441.262 432.88 439.487 433.601 437.694 434.069C431.242 435.751 423.699 434.395 418.465 430.148C417.299 429.558 415.138 427.236 414.417 426.082C414.056 425.698 413.771 425.291 413.474 424.857C411.236 421.585 409.941 417.699 409.649 413.748C409.637 413.589 409.604 413.551 409.497 413.434C408.022 411.975 407.7 410.078 407.452 408.088C407.382 407.814 407.272 407.541 407.191 407.269C406.612 405.318 407.539 403.621 409.014 402.428C409.08 402.37 409.166 402.292 409.181 402.206C409.427 400.78 409.544 399.353 410.039 397.975C410.687 396.171 411.399 394.347 412.374 392.69C412.561 392.371 412.799 392.094 413 391.785C413.276 391.346 413.486 390.874 413.841 390.487Z" fill="#FEBD2C"/>
<path d="M413.842 390.485C413.915 390.608 413.866 390.559 414.002 390.628C414.25 390.534 414.541 390.337 414.778 390.199C415.286 389.903 415.841 389.7 416.419 389.597C417.994 389.304 419.706 389.882 421.197 390.338C422.926 390.866 424.593 391.486 426.239 392.235C428.978 393.5 431.644 394.919 434.223 396.485C435.576 397.302 437.233 398.305 438.486 399.246C441.921 401.826 444.729 405.252 447.041 408.852C447.779 410 448.286 411.015 448.952 412.15C446.496 413.526 444.076 414.733 441.34 415.473C439.781 415.895 438.044 416.087 436.433 416.203C431.04 416.593 425.621 416.016 420.431 414.497C419.07 414.11 417.726 413.663 416.404 413.157C414.144 412.31 411.896 411.389 410.106 409.707C409.623 409.253 409.017 408.567 408.979 407.868C408.882 406.116 409.085 404.341 409.139 402.59C409.142 402.503 409.076 402.467 409.014 402.426C409.08 402.368 409.167 402.291 409.182 402.204C409.427 400.778 409.544 399.351 410.039 397.973C410.687 396.17 411.399 394.345 412.374 392.688C412.562 392.37 412.799 392.092 413 391.783C413.276 391.344 413.486 390.872 413.842 390.485Z" fill="#FC9829"/>
<path d="M409.497 413.434C409.86 413.675 410.206 413.973 410.564 414.23C411.034 414.567 411.517 414.867 412.012 415.164C414.962 416.712 417.225 417.32 420.42 418.156C421.622 418.464 423.004 418.802 424.18 419.182C424.598 419.256 425.345 419.488 425.773 419.609L428.579 420.407L431.553 421.269C431.987 421.397 432.751 421.595 433.145 421.754C433.351 421.997 435.709 423.409 436.137 423.673L442.561 427.636C443.556 428.25 444.864 429.002 445.809 429.643C445.578 429.934 445.391 430.175 445.116 430.431L445.124 430.479C444.643 430.919 444.203 431.192 443.662 431.547C443.471 431.693 443.107 431.916 442.873 431.963C441.262 432.88 439.487 433.601 437.694 434.068C431.241 435.751 423.699 434.395 418.465 430.148C417.298 429.558 415.138 427.236 414.417 426.082C414.056 425.698 413.771 425.291 413.474 424.857C411.235 421.584 409.941 417.699 409.648 413.748C409.637 413.589 409.604 413.551 409.497 413.434Z" fill="#3BAAD7"/>
<path d="M424.181 419.182C424.598 419.256 425.345 419.488 425.773 419.609L428.579 420.407L431.553 421.269C431.988 421.397 432.752 421.595 433.146 421.754C433.352 421.997 435.709 423.409 436.137 423.673L442.561 427.636C443.557 428.25 444.864 429.002 445.81 429.643C445.578 429.934 445.391 430.175 445.117 430.431C444.983 430.483 444.855 430.505 444.715 430.535C444.28 430.408 443.949 430.122 443.523 429.973C443.223 429.864 443.156 429.941 443.056 430.222C442.985 430.424 442.819 431.067 442.501 430.96C442.412 430.718 442.649 430.265 442.453 430.154C442.22 430.213 442.037 430.601 441.736 430.493C441.263 430.324 441.74 429.389 441.863 429.09C441.52 428.938 441.317 428.853 440.985 428.665C440.85 428.86 440.726 429.108 440.613 429.321C440.337 429.317 439.818 429.292 439.58 429.371C439.183 429.503 438.934 429.921 438.524 430.08C438.054 430.263 437.203 430.354 436.786 430.578C436.175 430.908 436.29 431.251 435.495 431.424C435.204 431.768 435.055 432.146 434.835 432.531C434.549 433.034 434.092 432.596 433.796 432.375C433.89 431.926 434.06 431.413 434.195 430.969C433.979 430.718 433.816 430.364 433.667 430.064L433.771 429.649C433.472 429.635 433.294 429.636 432.994 429.653C432.744 429.237 432.551 428.723 432.334 428.376C432.107 428.014 431.168 427.495 430.735 427.448C430.471 427.42 429.971 427.405 429.72 427.361C428.422 427.136 429.046 426.458 428.617 425.663C428.599 425.631 428.501 425.551 428.447 425.543C427.849 425.457 427.28 425.464 426.667 425.376C427.137 424.919 427.168 425.015 426.726 424.487C426.643 424.389 426.72 423.872 426.643 423.801C426.079 423.286 425.898 424.046 425.776 424.427C427.097 425.423 425.779 426.041 427.941 426.102C427.916 426.366 427.908 426.549 427.906 426.815C428.194 427.063 428.82 427.545 428.634 427.981C428.586 427.993 428.554 428.001 428.504 427.997C427.999 427.959 427.696 428.353 427.267 428.549C426.898 428.717 426.63 428.636 426.272 428.497C426.163 428.373 426.017 428.145 425.919 428.003C425.609 428.305 425.479 428.184 424.969 428.248C424.828 428.159 424.459 427.842 424.288 427.714C424.043 427.745 423.822 427.773 423.573 427.769C420.819 427.725 422.416 426.729 422.325 425.177C422.159 425.057 421.96 424.93 421.787 424.815C421.84 424.466 421.961 423.909 421.926 423.574C421.891 423.252 421.575 423.064 421.334 422.891C421.677 422.304 421.558 421.653 421.511 421.004C421.448 420.114 422.087 420.177 422.773 420.175C422.706 419.959 422.626 419.81 422.716 419.604C423.026 419.301 423.75 419.834 424.181 419.182Z" fill="#85BC43"/>
<path d="M409.497 413.434C409.86 413.675 410.206 413.973 410.564 414.23C411.034 414.567 411.517 414.867 412.012 415.164C414.962 416.712 417.225 417.32 420.42 418.156L420.382 418.236C420.565 418.513 421.084 419.174 421.308 419.413C421.266 419.726 421.238 420.073 421.192 420.374C420.991 420.659 420.506 420.989 420.22 421.225C420.545 421.748 421.016 422.304 421.262 422.824C420.679 423.199 420.491 423.274 420.844 423.916C420.767 424.139 420.718 424.285 420.614 424.497C421.364 425.084 420.18 425.906 420.254 426.169C420.491 426.364 421.187 426.398 421.509 426.427C420.971 427.194 421.182 427.298 421.841 427.81C422.462 428.291 424.544 428.349 425.004 428.81L425 428.88C424.811 429.023 424.601 429.067 424.397 429.167C423.963 429.379 423.789 429.488 423.312 429.529C423.08 429.869 422.983 430.22 422.556 429.977C421.409 429.323 420.221 428.831 419.007 428.324C418.871 428.268 418.649 428.139 418.505 428.174C418.398 428.355 418.48 428.961 418.533 429.171C418.869 429.514 418.986 429.456 419.331 429.66C419.344 429.917 419.351 430.121 419.345 430.377C419.107 430.296 418.7 430.136 418.465 430.148C417.298 429.558 415.138 427.236 414.417 426.082C414.056 425.698 413.771 425.291 413.474 424.857C411.235 421.584 409.941 417.699 409.648 413.748C409.637 413.589 409.604 413.551 409.497 413.434Z" fill="#85BC43"/>
<path d="M409.497 413.434C409.86 413.675 410.206 413.973 410.564 414.23C411.034 414.567 411.517 414.867 412.012 415.164C411.726 415.639 411.897 416.259 412.168 416.698C412.037 416.92 411.6 417.829 412.017 417.998C412.086 418.026 412.264 418.028 412.342 418.027C412.447 418.253 412.153 418.816 412.056 419.031C412.331 419.609 412.514 420.039 412.986 420.496C413.124 420.631 412.52 421.88 412.442 422.138C412.694 422.735 413.04 423.292 413.326 423.871C413.677 424.584 414.168 425.335 414.417 426.082C414.056 425.698 413.771 425.291 413.474 424.857C411.235 421.584 409.941 417.699 409.648 413.748C409.637 413.589 409.604 413.551 409.497 413.434Z" fill="#3BAAD7"/>
<path d="M442.497 431.207C442.828 431.222 443.469 431.255 443.663 431.547C443.471 431.694 443.108 431.916 442.874 431.963C442.639 431.647 442.604 431.57 442.497 431.207Z" fill="#85BC43"/>
<path d="M407.451 408.088C407.693 408.347 408.13 409.134 408.421 409.502C409.428 410.789 410.694 411.845 412.085 412.69C413.797 413.73 415.62 414.288 417.528 414.851C421.075 415.899 424.7 416.657 428.37 417.117C430.538 417.373 433.037 417.558 435.216 417.495C439.164 417.361 443.11 416.47 446.778 415.007C448.604 414.242 450.492 413.384 451.971 412.036C453.261 410.86 454.484 409.513 455.008 407.81C455.167 407.297 455.23 406.769 455.292 406.24C456.157 411.214 452.086 414.122 448.161 416.022C446.338 416.904 444.252 417.667 442.29 418.152C440.773 418.526 439.057 418.584 437.504 418.732C433.964 418.986 430.42 418.954 426.877 418.952C428.069 419.327 429.332 419.664 430.536 420.004L435.888 421.528L439.208 422.475C439.939 422.682 440.824 422.95 441.565 423.078C442.339 423.21 443.129 423.212 443.903 423.082C445.836 422.764 446.894 421.925 448.385 420.754C449.223 420.101 450.05 419.435 450.868 418.757C452.173 417.684 453.569 416.569 454.841 415.468C456.369 414.132 457.854 412.746 459.293 411.312C460.034 410.573 460.748 409.825 461.434 409.031C461.926 408.462 462.428 407.86 462.123 407.053C462.071 406.916 461.996 406.772 461.971 406.629L462.059 406.513C462.613 407.007 462.943 407.708 462.971 408.451C462.984 408.769 462.899 409.115 462.714 409.371C460.919 411.878 458.326 414.098 456.018 416.076C455.539 416.481 455.066 416.893 454.601 417.314C454.391 417.501 454.182 417.658 453.987 417.864C453.826 418.032 453.725 418.116 453.63 418.33L453.602 418.392C453.482 418.664 453.363 419.148 453.272 419.449C453.12 419.94 452.944 420.423 452.746 420.897C452.453 421.583 452.07 422.238 451.763 422.918C451.684 423.093 451.576 423.313 451.48 423.474C450.04 425.906 448.259 428.171 445.981 429.868C445.701 430.077 445.398 430.258 445.124 430.48L445.116 430.431C445.391 430.176 445.578 429.934 445.809 429.644C444.864 429.002 443.556 428.25 442.561 427.636L436.137 423.673C435.709 423.409 433.351 421.998 433.145 421.754C432.751 421.595 431.987 421.397 431.552 421.27L428.579 420.407L425.773 419.61C425.345 419.489 424.598 419.257 424.18 419.182C423.004 418.802 421.622 418.464 420.42 418.157C417.225 417.32 414.962 416.712 412.012 415.165C411.516 414.868 411.033 414.567 410.564 414.23C410.206 413.974 409.86 413.676 409.497 413.434C408.021 411.975 407.7 410.078 407.451 408.088Z" fill="#FC9829"/>
<path d="M449.78 421.297C450.264 420.857 451.183 420.153 451.703 419.718C452.143 419.35 453.566 418.086 453.988 417.863C453.826 418.031 453.726 418.116 453.63 418.33L453.603 418.391C453.482 418.663 453.363 419.148 453.273 419.448C453.12 419.939 452.944 420.423 452.746 420.897C452.454 421.583 452.071 422.237 451.763 422.918C451.684 423.092 451.576 423.312 451.481 423.473C450.04 425.906 448.26 428.171 445.981 429.867C445.701 430.076 445.398 430.257 445.124 430.479L445.117 430.431C445.391 430.175 445.578 429.933 445.81 429.643C444.864 429.002 443.557 428.25 442.561 427.636L436.137 423.672C435.709 423.408 433.351 421.997 433.146 421.754C433.673 421.878 434.289 422.09 434.823 422.241C437.165 422.901 439.325 423.771 441.735 424.16C445.652 424.792 446.918 423.381 449.78 421.297Z" fill="#5D9A31"/>
<path d="M449.779 421.297C450.264 420.857 451.183 420.153 451.702 419.718C452.143 419.35 453.566 418.086 453.987 417.863C453.826 418.031 453.726 418.116 453.63 418.33L453.602 418.391C453.482 418.663 453.363 419.148 453.273 419.448C453.12 419.939 452.944 420.423 452.746 420.897C452.453 421.583 452.071 422.237 451.763 422.918C451.684 423.092 451.576 423.312 451.48 423.473C450.04 425.906 448.259 428.171 445.981 429.867C445.701 430.076 445.398 430.257 445.124 430.479L445.116 430.431C445.391 430.175 445.578 429.933 445.809 429.643C446.05 429.283 446.247 428.47 445.72 428.289C445.59 428.332 445.566 428.34 445.433 428.358L445.409 428.315C445.65 427.88 446.318 427.167 446.712 426.844C446.896 426.693 447.297 426.412 447.436 426.252C447.759 425.88 448.089 425.397 448.483 425.09C448.651 424.958 449.066 424.922 449.29 424.719C449.438 424.446 449.319 423.305 449.229 422.962C449.541 422.393 450.052 422.077 449.779 421.297Z" fill="#1982AC"/>
</g>
<g filter="url(#filter8_dddd_225_2861)">
<rect x="274" y="395" width="80" height="80" rx="24" fill="white"/>
<rect x="302.109" y="416.205" width="12.274" height="12.274" fill="#EC1C1A"/>
<rect x="286" y="413.904" width="12.274" height="12.274" fill="#EC1C1A"/>
<rect x="302.109" y="430.014" width="12.274" height="12.274" fill="#EC1C1A"/>
<rect x="302.109" y="443.822" width="12.274" height="12.274" fill="#0072BC"/>
<rect x="315.918" y="430.014" width="12.274" height="12.274" fill="#0072BC"/>
<rect x="315.918" y="443.822" width="12.274" height="12.274" fill="#0072BC"/>
<rect x="329.726" y="443.822" width="12.274" height="12.274" fill="#0072BC"/>
<rect x="288.302" y="430.014" width="12.274" height="12.274" fill="#0072BC"/>
<rect x="288.302" y="443.822" width="12.274" height="12.274" fill="#0072BC"/>
<rect x="315.918" y="416.205" width="12.274" height="12.274" fill="#EC1C1A"/>
<path d="M292.137 424.72C291.523 424.72 290.946 424.607 290.406 424.38C289.866 424.147 289.39 423.824 288.979 423.413C288.568 423.002 288.246 422.526 288.012 421.986C287.785 421.446 287.672 420.866 287.672 420.246C287.672 419.633 287.785 419.059 288.012 418.525C288.246 417.985 288.568 417.512 288.979 417.107C289.39 416.696 289.866 416.374 290.406 416.141C290.946 415.908 291.523 415.791 292.137 415.791C292.756 415.791 293.333 415.908 293.867 416.141C294.407 416.374 294.883 416.696 295.294 417.107C295.705 417.512 296.024 417.985 296.251 418.525C296.485 419.059 296.601 419.633 296.601 420.246C296.601 420.866 296.485 421.446 296.251 421.986C296.024 422.526 295.705 423.002 295.294 423.413C294.883 423.824 294.407 424.147 293.867 424.38C293.333 424.607 292.756 424.72 292.137 424.72ZM292.146 423.671C292.772 423.671 293.342 423.517 293.858 423.211C294.373 422.898 294.785 422.483 295.091 421.968C295.398 421.452 295.552 420.879 295.552 420.246C295.552 419.62 295.398 419.05 295.091 418.534C294.785 418.019 294.373 417.608 293.858 417.301C293.342 416.994 292.772 416.84 292.146 416.84C291.514 416.84 290.94 416.994 290.424 417.301C289.909 417.608 289.498 418.019 289.191 418.534C288.884 419.05 288.731 419.62 288.731 420.246C288.731 420.879 288.884 421.452 289.191 421.968C289.498 422.483 289.909 422.898 290.424 423.211C290.94 423.517 291.514 423.671 292.146 423.671ZM290.636 422.364V418.083H292.505C292.904 418.083 293.238 418.218 293.508 418.488C293.778 418.752 293.916 419.08 293.922 419.473C293.922 419.725 293.855 419.967 293.72 420.2C293.585 420.428 293.388 420.602 293.131 420.725L293.941 422.364H293.131L292.394 420.863H291.354V422.364H290.636ZM291.354 420.191H292.505C292.689 420.191 292.848 420.124 292.983 419.989C293.118 419.848 293.186 419.676 293.186 419.473C293.186 419.258 293.115 419.087 292.974 418.958C292.839 418.829 292.683 418.764 292.505 418.764H291.354V420.191Z" fill="white"/>
</g>
<g filter="url(#filter9_dddd_225_2861)">
<rect x="157" y="365" width="80" height="80" rx="24" fill="white"/>
<g clip-path="url(#clip4_225_2861)">
<path d="M198.969 433C183.524 433 170.969 420.492 170.969 405.047C170.969 389.602 183.524 377 198.969 377C214.414 377 226.969 389.602 226.969 405.054C226.969 420.499 214.414 433 198.969 433Z" fill="#FF5226"/>
<path d="M194.634 380.791L163.395 429.532H177.717L195.763 401.438L195.32 401.237L190.319 421.339L200.912 423.208L211.8 409.524L211.208 409.228L207.532 424.767L230.612 420.371L225.901 412.622L217.58 414.524L218.561 415.653L222.432 399.422L213.406 393.386L201.597 408.247L202.182 408.542L207.034 389.071L194.634 380.791Z" fill="#FFDD00"/>
<path d="M194.634 380.791L163.395 429.532H177.717L195.763 401.438L195.32 401.237L190.319 421.339L200.912 423.208L211.8 409.524L211.208 409.228L207.532 424.767L216.807 422.999L222.439 399.415L213.413 393.38L201.597 408.247L202.182 408.542L207.034 389.071L194.634 380.791Z" fill="#FFDD00"/>
</g>
</g>
<g filter="url(#filter10_dddd_225_2861)">
<rect x="49" y="297" width="80" height="80" rx="24" fill="white"/>
<mask id="mask1_225_2861" style="mask-type:alpha" maskUnits="userSpaceOnUse" x="61" y="309" width="56" height="56">
<path d="M89 365C104.464 365 117 352.464 117 337C117 321.536 104.464 309 89 309C73.536 309 61 321.536 61 337C61 352.464 73.536 365 89 365Z" fill="white"/>
</mask>
<g mask="url(#mask1_225_2861)">
<path d="M61 309H117V365H61V309Z" fill="url(#paint0_linear_225_2861)"/>
<path d="M61 343.457H78.2308V364.995H61V343.457Z" fill="url(#paint1_linear_225_2861)"/>
<path d="M78.2305 336.565C78.2305 332.947 78.2305 331.137 78.9348 329.755C79.5543 328.539 80.5427 327.55 81.7585 326.931C83.1412 326.227 84.9505 326.227 88.5689 326.227H99.7689V364.996H78.2305V336.565Z" fill="url(#paint2_linear_225_2861)"/>
<path d="M99.7695 308.996H117V364.996H99.7695V308.996Z" fill="url(#paint3_linear_225_2861)"/>
</g>
</g>
<g filter="url(#filter11_dddd_225_2861)">
<rect x="89" y="195" width="80" height="80" rx="24" fill="white"/>
<g clip-path="url(#clip5_225_2861)">
<path d="M157 235.001V242.014C157 242.718 156.43 243.289 155.727 243.289H102.273C101.57 243.289 101 242.718 101 242.014V227.988C101 227.284 101.57 226.713 102.273 226.713H155.727C156.43 226.713 157 227.284 157 227.988V235.001Z" fill="#EF4741"/>
<path d="M127.04 230.164H123.146V239.804H127.486C129.115 239.804 131.805 239.655 131.805 236.879V233.093C131.8 230.313 128.669 230.164 127.04 230.164ZM129.488 236.624C129.488 238.014 128.479 238.155 127.329 238.155H125.458V231.813H126.896C128.046 231.813 129.501 231.953 129.501 233.343L129.488 236.624ZM109.125 230.164H105.26V239.804H109.579C111.208 239.804 113.897 239.655 113.897 236.879V233.093C113.897 230.313 110.775 230.164 109.137 230.164H109.125ZM111.573 236.624C111.573 238.014 110.563 238.155 109.413 238.155H107.555V231.813H108.98C110.13 231.813 111.585 231.953 111.585 233.343L111.573 236.624ZM142.966 230.538H140.803V237.649C140.795 237.991 140.852 238.331 140.973 238.652C141.061 238.9 141.207 239.124 141.397 239.306C141.592 239.474 141.818 239.601 142.063 239.68C142.317 239.77 142.58 239.83 142.848 239.859C143.099 239.882 143.394 239.894 143.73 239.897C144.131 239.897 144.532 239.873 144.931 239.825V238.605H144.159C143.986 238.629 143.811 238.619 143.642 238.574C143.474 238.53 143.316 238.452 143.179 238.346C142.998 238.044 142.92 237.692 142.958 237.343V233.824H144.931V232.489H142.958L142.966 230.538ZM151.876 232.952C151.361 232.629 150.442 232.469 149.118 232.472H146.606V232.578L146.916 233.811H149.118C149.484 233.789 149.849 233.862 150.179 234.023C150.292 234.131 150.379 234.265 150.432 234.412C150.485 234.56 150.503 234.718 150.484 234.873V235.362H148.066C147.217 235.362 146.635 235.528 146.318 235.859C146.001 236.191 145.837 236.787 145.826 237.649C145.826 238.588 145.983 238.983 146.301 239.281C146.619 239.578 147.234 239.799 148.202 239.799H151.197C151.943 239.799 152.66 239.447 152.66 238.601V234.856C152.66 233.907 152.403 233.271 151.888 232.948L151.876 232.952ZM150.48 238.605H149.059C148.737 238.641 148.412 238.589 148.117 238.456C147.992 238.357 147.93 238.074 147.93 237.606C147.93 237.139 147.989 236.847 148.108 236.731C148.381 236.587 148.693 236.53 148.999 236.569H150.48V238.605ZM138.813 232.952C138.299 232.629 137.379 232.469 136.056 232.472H133.544V232.578L133.854 233.811H136.056C136.421 233.789 136.787 233.862 137.116 234.023C137.229 234.132 137.316 234.265 137.369 234.412C137.422 234.56 137.44 234.718 137.422 234.873V235.362H134.991C134.142 235.362 133.56 235.528 133.243 235.859C132.926 236.191 132.768 236.787 132.768 237.649C132.768 238.588 132.925 238.983 133.243 239.281C133.561 239.578 134.176 239.799 135.143 239.799H138.139C138.889 239.799 139.602 239.447 139.602 238.601V234.856C139.599 233.907 139.342 233.271 138.83 232.948L138.813 232.952ZM137.422 238.605H136C135.679 238.641 135.354 238.589 135.059 238.456C134.934 238.357 134.872 238.074 134.872 237.606C134.872 237.139 134.931 236.847 135.05 236.731C135.323 236.587 135.635 236.53 135.941 236.569H137.422V238.605ZM120.91 232.952C120.395 232.629 119.476 232.469 118.153 232.472H115.654V232.578L115.963 233.811H118.165C118.531 233.789 118.897 233.862 119.226 234.023C119.339 234.132 119.426 234.265 119.479 234.412C119.532 234.56 119.55 234.718 119.531 234.873V235.362H117.1C116.252 235.362 115.669 235.528 115.353 235.859C115.036 236.191 114.872 236.787 114.86 237.649C114.86 238.588 115.017 238.983 115.336 239.281C115.654 239.578 116.269 239.799 117.236 239.799H120.231C120.982 239.799 121.695 239.447 121.695 238.601V234.856C121.695 233.907 121.437 233.271 120.923 232.948L120.91 232.952ZM119.519 238.605H118.11C117.789 238.641 117.464 238.589 117.168 238.456C117.044 238.357 116.982 238.074 116.982 237.606C116.982 237.139 117.041 236.847 117.16 236.731C117.433 236.587 117.744 236.53 118.051 236.569H119.531L119.519 238.605Z" fill="white"/>
</g>
</g>
<path d="M163.667 235C163.667 237.946 166.054 240.333 169 240.333C171.946 240.333 174.333 237.946 174.333 235C174.333 232.054 171.946 229.667 169 229.667C166.054 229.667 163.667 232.054 163.667 235ZM327.107 257.667C327.497 257.276 327.497 256.724 327.107 256.333L322.667 251.893C322.276 251.503 321.724 251.503 321.333 251.893L316.227 257L321.333 262.107C321.724 262.497 322.276 262.497 322.667 262.107L327.107 257.667ZM169 235V236H234.5V235V234H169V235ZM256.5 257V258H322V257V256H256.5V257ZM245.5 246H244.5C244.5 252.627 249.873 258 256.5 258V257V256C250.977 256 246.5 251.523 246.5 246H245.5ZM234.5 235V236C240.023 236 244.5 240.477 244.5 246H245.5H246.5C246.5 239.373 241.127 234 234.5 234V235Z" fill="#6788EC"/>
<g filter="url(#filter12_dddd_225_2861)">
<rect x="140" y="75" width="80" height="80" rx="24" fill="white"/>
<g clip-path="url(#clip6_225_2861)">
<path d="M203.986 109.92C205.256 106.107 204.819 101.93 202.787 98.461C199.732 93.141 193.589 90.404 187.59 91.692C184.921 88.6855 181.087 86.9758 177.067 87.0003C170.935 86.9863 165.495 90.9343 163.608 96.7688C159.669 97.5755 156.269 100.041 154.279 103.536C151.201 108.842 151.902 115.531 156.015 120.081C154.744 123.894 155.182 128.071 157.214 131.54C160.269 136.86 166.412 139.597 172.411 138.309C175.078 141.315 178.914 143.025 182.933 142.999C189.069 143.014 194.511 139.063 196.398 133.223C200.337 132.416 203.737 129.951 205.727 126.456C208.802 121.15 208.098 114.467 203.988 109.917L203.986 109.92ZM182.937 139.339C180.482 139.343 178.103 138.484 176.219 136.91C176.304 136.865 176.453 136.783 176.549 136.723L187.7 130.283C188.271 129.959 188.621 129.352 188.617 128.696V112.976L193.33 115.697C193.381 115.721 193.414 115.77 193.421 115.826V128.845C193.414 134.634 188.726 139.327 182.937 139.339ZM160.39 129.709C159.16 127.585 158.717 125.094 159.139 122.678C159.221 122.727 159.366 122.816 159.469 122.875L170.62 129.315C171.186 129.646 171.886 129.646 172.453 129.315L186.066 121.454V126.897C186.069 126.953 186.043 127.007 185.999 127.042L174.728 133.55C169.707 136.441 163.295 134.723 160.392 129.709H160.39ZM157.455 105.368C158.68 103.24 160.614 101.613 162.917 100.768C162.917 100.864 162.912 101.034 162.912 101.153V114.034C162.908 114.689 163.258 115.296 163.827 115.62L177.44 123.479L172.727 126.2C172.68 126.232 172.621 126.237 172.568 126.214L161.295 119.701C156.284 116.799 154.566 110.389 157.453 105.37L157.455 105.368ZM196.176 114.379L182.562 106.518L187.275 103.799C187.322 103.767 187.382 103.762 187.434 103.785L198.708 110.293C203.727 113.193 205.447 119.613 202.547 124.632C201.321 126.757 199.389 128.384 197.087 129.231V115.965C197.093 115.31 196.744 114.705 196.177 114.379H196.176ZM200.866 107.32C200.783 107.269 200.638 107.181 200.535 107.122L189.384 100.682C188.819 100.351 188.119 100.351 187.552 100.682L173.938 108.543V103.1C173.935 103.044 173.961 102.99 174.005 102.955L185.277 96.452C190.297 93.5558 196.716 95.2795 199.611 100.302C200.834 102.423 201.277 104.906 200.862 107.32H200.866ZM171.376 117.02L166.662 114.299C166.611 114.274 166.578 114.225 166.571 114.169V101.151C166.574 95.3548 171.277 90.6578 177.073 90.6613C179.524 90.6613 181.897 91.5223 183.782 93.0903C183.696 93.1358 183.549 93.218 183.451 93.2775L172.3 99.7175C171.73 100.041 171.38 100.647 171.383 101.303L171.376 117.016V117.02ZM173.937 111.5L180 107.999L186.064 111.499V118.5L180 122L173.937 118.5V111.5Z" fill="black"/>
</g>
</g>
<path d="M290.667 136C290.667 138.946 293.054 141.333 296 141.333C298.946 141.333 301.333 138.946 301.333 136C301.333 133.054 298.946 130.667 296 130.667C293.054 130.667 290.667 133.054 290.667 136ZM361.333 222.107C361.724 222.497 362.276 222.497 362.667 222.107L367.107 217.667C367.497 217.276 367.497 216.724 367.107 216.333L362 211.226L356.893 216.333C356.503 216.724 356.503 217.276 356.893 217.667L361.333 222.107ZM296 136H295V157H296H297V136H296ZM320 181V182H338V181V180H320V181ZM362 205H361V217H362H363V205H362ZM338 181V182C350.703 182 361 192.297 361 205H362H363C363 191.193 351.807 180 338 180V181ZM296 157H295C295 170.807 306.193 182 320 182V181V180C307.297 180 297 169.703 297 157H296Z" fill="#6788EC"/>
<path d="M554.667 117C554.667 119.946 557.054 122.333 560 122.333C562.946 122.333 565.333 119.946 565.333 117C565.333 114.054 562.946 111.667 560 111.667C557.054 111.667 554.667 114.054 554.667 117ZM361.333 222.107C361.724 222.497 362.276 222.497 362.667 222.107L367.107 217.667C367.497 217.276 367.497 216.724 367.107 216.333L362 211.226L356.893 216.333C356.503 216.724 356.503 217.276 356.893 217.667L361.333 222.107ZM560 117H559V121H560H561V117H560ZM536 145V144H486V145V146H536V145ZM444 187V186H386V187V188H444V187ZM362 211H361V217H362H363V211H362ZM386 187V186C372.193 186 361 197.193 361 211H362H363C363 198.297 373.297 188 386 188V187ZM465 166H464C464 177.046 455.046 186 444 186V187V188C456.15 188 466 178.15 466 166H465ZM486 145V144C473.85 144 464 153.85 464 166H465H466C466 154.954 474.954 146 486 146V145ZM560 121H559C559 133.703 548.703 144 536 144V145V146C549.807 146 561 134.807 561 121H560Z" fill="#6788EC"/>
<path d="M426.667 105C426.667 107.946 429.054 110.333 432 110.333C434.946 110.333 437.333 107.946 437.333 105C437.333 102.054 434.946 99.6667 432 99.6667C429.054 99.6667 426.667 102.054 426.667 105ZM361.333 222.107C361.724 222.497 362.276 222.497 362.667 222.107L367.107 217.667C367.497 217.276 367.497 216.724 367.107 216.333L362 211.226L356.893 216.333C356.503 216.724 356.503 217.276 356.893 217.667L361.333 222.107ZM432 105H431V126H432H433V105H432ZM408 150V149H386V150V151H408V150ZM362 174H361V217H362H363V174H362ZM386 150V149C372.193 149 361 160.193 361 174H362H363C363 161.297 373.297 151 386 151V150ZM432 126H431C431 138.703 420.703 149 408 149V150V151C421.807 151 433 139.807 433 126H432Z" fill="#6788EC"/>
<path d="M560.667 187C560.667 189.946 563.054 192.333 566 192.333C568.946 192.333 571.333 189.946 571.333 187C571.333 184.054 568.946 181.667 566 181.667C563.054 181.667 560.667 184.054 560.667 187ZM396.893 256.333C396.503 256.724 396.503 257.276 396.893 257.667L401.333 262.107C401.724 262.497 402.276 262.497 402.667 262.107L407.774 257L402.667 251.893C402.276 251.503 401.724 251.503 401.333 251.893L396.893 256.333ZM566 187V186H512V187V188H566V187ZM488 211H487V233H488H489V211H488ZM464 257V256H402V257V258H464V257ZM488 233H487C487 245.703 476.703 256 464 256V257V258C477.807 258 489 246.807 489 233H488ZM512 187V186C498.193 186 487 197.193 487 211H488H489C489 198.297 499.297 188 512 188V187Z" fill="#6788EC"/>
<path d="M560.667 297C560.667 299.946 563.054 302.333 566 302.333C568.946 302.333 571.333 299.946 571.333 297C571.333 294.054 568.946 291.667 566 291.667C563.054 291.667 560.667 294.054 560.667 297ZM396.893 256.333C396.503 256.724 396.503 257.276 396.893 257.667L401.333 262.107C401.724 262.497 402.276 262.497 402.667 262.107L407.774 257L402.667 251.893C402.276 251.503 401.724 251.503 401.333 251.893L396.893 256.333ZM566 297V296H535V297V298H566V297ZM495 257V256H402V257V258H495V257ZM515 277H516C516 265.402 506.598 256 495 256V257V258C505.493 258 514 266.507 514 277H515ZM535 297V296C524.507 296 516 287.493 516 277H515H514C514 288.598 523.402 298 535 298V297Z" fill="#6788EC"/>
<path d="M429.667 369C429.667 371.946 432.054 374.333 435 374.333C437.946 374.333 440.333 371.946 440.333 369C440.333 366.054 437.946 363.667 435 363.667C432.054 363.667 429.667 366.054 429.667 369ZM362.667 291.893C362.276 291.503 361.724 291.503 361.333 291.893L356.893 296.333C356.503 296.724 356.503 297.276 356.893 297.667L362 302.774L367.107 297.667C367.497 297.276 367.497 296.724 367.107 296.333L362.667 291.893ZM435 369H436V357H435H434V369H435ZM411 333V332H386V333V334H411V333ZM362 309H363V297H362H361V309H362ZM386 333V332C373.297 332 363 321.703 363 309H362H361C361 322.807 372.193 334 386 334V333ZM435 357H436C436 343.193 424.807 332 411 332V333V334C423.703 334 434 344.297 434 357H435Z" fill="#6788EC"/>
<path d="M308.667 395C308.667 397.946 311.054 400.333 314 400.333C316.946 400.333 319.333 397.946 319.333 395C319.333 392.054 316.946 389.667 314 389.667C311.054 389.667 308.667 392.054 308.667 395ZM362.667 291.893C362.276 291.503 361.724 291.503 361.333 291.893L356.893 296.333C356.503 296.724 356.503 297.276 356.893 297.667L362 302.774L367.107 297.667C367.497 297.276 367.497 296.724 367.107 296.333L362.667 291.893ZM314 395H315V370H314H313V395H314ZM362 322H363V297H362H361V322H362ZM338 346V347C351.807 347 363 335.807 363 322H362H361C361 334.703 350.703 345 338 345V346ZM314 370H315C315 357.297 325.297 347 338 347V346V345C324.193 345 313 356.193 313 370H314Z" fill="#6788EC"/>
<path d="M123.667 337C123.667 339.946 126.054 342.333 129 342.333C131.946 342.333 134.333 339.946 134.333 337C134.333 334.054 131.946 331.667 129 331.667C126.054 331.667 123.667 334.054 123.667 337ZM327.107 257.667C327.497 257.276 327.497 256.724 327.107 256.333L322.667 251.893C322.276 251.503 321.724 251.503 321.333 251.893L316.227 257L321.333 262.107C321.724 262.497 322.276 262.497 322.667 262.107L327.107 257.667ZM129 337V338H161V337V336H129V337ZM185 313H186V309H185H184V313H185ZM209 285V286H266V285V284H209V285ZM294 257V258H322V257V256H294V257ZM280 271H281C281 263.82 286.82 258 294 258V257V256C285.716 256 279 262.716 279 271H280ZM266 285V286C274.284 286 281 279.284 281 271H280H279C279 278.18 273.18 284 266 284V285ZM185 309H186C186 296.297 196.297 286 209 286V285V284C195.193 284 184 295.193 184 309H185ZM161 337V338C174.807 338 186 326.807 186 313H185H184C184 325.703 173.703 336 161 336V337Z" fill="#6788EC"/>
<path d="M191.667 365C191.667 367.946 194.054 370.333 197 370.333C199.946 370.333 202.333 367.946 202.333 365C202.333 362.054 199.946 359.667 197 359.667C194.054 359.667 191.667 362.054 191.667 365ZM362.667 291.893C362.276 291.503 361.724 291.503 361.333 291.893L356.893 296.333C356.503 296.724 356.503 297.276 356.893 297.667L362 302.774L367.107 297.667C367.497 297.276 367.497 296.724 367.107 296.333L362.667 291.893ZM197 365H198V349H197H196V365H197ZM221 325V326H338V325V324H221V325ZM362 301H363V297H362H361V301H362ZM338 325V326C351.807 326 363 314.807 363 301H362H361C361 313.703 350.703 324 338 324V325ZM197 349H198C198 336.297 208.297 326 221 326V325V324C207.193 324 196 335.193 196 349H197Z" fill="#6788EC"/>
<path d="M174.667 155C174.667 157.946 177.054 160.333 180 160.333C182.946 160.333 185.333 157.946 185.333 155C185.333 152.054 182.946 149.667 180 149.667C177.054 149.667 174.667 152.054 174.667 155ZM327.107 257.667C327.497 257.276 327.497 256.724 327.107 256.333L322.667 251.893C322.276 251.503 321.724 251.503 321.333 251.893L316.227 257L321.333 262.107C321.724 262.497 322.276 262.497 322.667 262.107L327.107 257.667ZM180 155H179V158H180H181V155H180ZM204 182V183H259V182V181H204V182ZM283 206H282V233H283H284V206H283ZM307 257V258H322V257V256H307V257ZM283 233H282C282 246.807 293.193 258 307 258V257V256C294.297 256 284 245.703 284 233H283ZM259 182V183C271.703 183 282 193.297 282 206H283H284C284 192.193 272.807 181 259 181V182ZM180 158H179C179 171.807 190.193 183 204 183V182V181C191.297 181 181 170.703 181 158H180Z" fill="#6788EC"/>
<defs>
<filter id="filter0_dddd_225_2861" x="313" y="215" width="98" height="114" filterUnits="userSpaceOnUse" color-interpolation-filters="sRGB">
<feFlood flood-opacity="0" result="BackgroundImageFix"/>
<feColorMatrix in="SourceAlpha" type="matrix" values="0 0 0 0 0 0 0 0 0 0 0 0 0 0 0 0 0 0 127 0" result="hardAlpha"/>
<feOffset dy="1"/>
<feGaussianBlur stdDeviation="1.5"/>
<feColorMatrix type="matrix" values="0 0 0 0 0.403922 0 0 0 0 0.533333 0 0 0 0 0.92549 0 0 0 0.18 0"/>
<feBlend mode="normal" in2="BackgroundImageFix" result="effect1_dropShadow_225_2861"/>
<feColorMatrix in="SourceAlpha" type="matrix" values="0 0 0 0 0 0 0 0 0 0 0 0 0 0 0 0 0 0 127 0" result="hardAlpha"/>
<feOffset dy="6"/>
<feGaussianBlur stdDeviation="3"/>
<feColorMatrix type="matrix" values="0 0 0 0 0.403922 0 0 0 0 0.533333 0 0 0 0 0.92549 0 0 0 0.16 0"/>
<feBlend mode="normal" in2="effect1_dropShadow_225_2861" result="effect2_dropShadow_225_2861"/>
<feColorMatrix in="SourceAlpha" type="matrix" values="0 0 0 0 0 0 0 0 0 0 0 0 0 0 0 0 0 0 127 0" result="hardAlpha"/>
<feOffset dy="13"/>
<feGaussianBlur stdDeviation="4"/>
<feColorMatrix type="matrix" values="0 0 0 0 0.403922 0 0 0 0 0.533333 0 0 0 0 0.92549 0 0 0 0.09 0"/>
<feBlend mode="normal" in2="effect2_dropShadow_225_2861" result="effect3_dropShadow_225_2861"/>
<feColorMatrix in="SourceAlpha" type="matrix" values="0 0 0 0 0 0 0 0 0 0 0 0 0 0 0 0 0 0 127 0" result="hardAlpha"/>
<feOffset dy="23"/>
<feGaussianBlur stdDeviation="4.5"/>
<feColorMatrix type="matrix" values="0 0 0 0 0.403922 0 0 0 0 0.533333 0 0 0 0 0.92549 0 0 0 0.03 0"/>
<feBlend mode="normal" in2="effect3_dropShadow_225_2861" result="effect4_dropShadow_225_2861"/>
<feBlend mode="normal" in="SourceGraphic" in2="effect4_dropShadow_225_2861" result="shape"/>
</filter>
<filter id="filter1_dddd_225_2861" x="242" y="53" width="108" height="131" filterUnits="userSpaceOnUse" color-interpolation-filters="sRGB">
<feFlood flood-opacity="0" result="BackgroundImageFix"/>
<feColorMatrix in="SourceAlpha" type="matrix" values="0 0 0 0 0 0 0 0 0 0 0 0 0 0 0 0 0 0 127 0" result="hardAlpha"/>
<feOffset dy="2"/>
<feGaussianBlur stdDeviation="2.5"/>
<feColorMatrix type="matrix" values="0 0 0 0 0 0 0 0 0 0 0 0 0 0 0 0 0 0 0.06 0"/>
<feBlend mode="normal" in2="BackgroundImageFix" result="effect1_dropShadow_225_2861"/>
<feColorMatrix in="SourceAlpha" type="matrix" values="0 0 0 0 0 0 0 0 0 0 0 0 0 0 0 0 0 0 127 0" result="hardAlpha"/>
<feOffset dy="9"/>
<feGaussianBlur stdDeviation="4.5"/>
<feColorMatrix type="matrix" values="0 0 0 0 0 0 0 0 0 0 0 0 0 0 0 0 0 0 0.05 0"/>
<feBlend mode="normal" in2="effect1_dropShadow_225_2861" result="effect2_dropShadow_225_2861"/>
<feColorMatrix in="SourceAlpha" type="matrix" values="0 0 0 0 0 0 0 0 0 0 0 0 0 0 0 0 0 0 127 0" result="hardAlpha"/>
<feOffset dy="19"/>
<feGaussianBlur stdDeviation="6"/>
<feColorMatrix type="matrix" values="0 0 0 0 0 0 0 0 0 0 0 0 0 0 0 0 0 0 0.03 0"/>
<feBlend mode="normal" in2="effect2_dropShadow_225_2861" result="effect3_dropShadow_225_2861"/>
<feColorMatrix in="SourceAlpha" type="matrix" values="0 0 0 0 0 0 0 0 0 0 0 0 0 0 0 0 0 0 127 0" result="hardAlpha"/>
<feOffset dy="34"/>
<feGaussianBlur stdDeviation="7"/>
<feColorMatrix type="matrix" values="0 0 0 0 0 0 0 0 0 0 0 0 0 0 0 0 0 0 0.01 0"/>
<feBlend mode="normal" in2="effect3_dropShadow_225_2861" result="effect4_dropShadow_225_2861"/>
<feBlend mode="normal" in="SourceGraphic" in2="effect4_dropShadow_225_2861" result="shape"/>
</filter>
<filter id="filter2_dddd_225_2861" x="378" y="22" width="108" height="131" filterUnits="userSpaceOnUse" color-interpolation-filters="sRGB">
<feFlood flood-opacity="0" result="BackgroundImageFix"/>
<feColorMatrix in="SourceAlpha" type="matrix" values="0 0 0 0 0 0 0 0 0 0 0 0 0 0 0 0 0 0 127 0" result="hardAlpha"/>
<feOffset dy="2"/>
<feGaussianBlur stdDeviation="2.5"/>
<feColorMatrix type="matrix" values="0 0 0 0 0 0 0 0 0 0 0 0 0 0 0 0 0 0 0.06 0"/>
<feBlend mode="normal" in2="BackgroundImageFix" result="effect1_dropShadow_225_2861"/>
<feColorMatrix in="SourceAlpha" type="matrix" values="0 0 0 0 0 0 0 0 0 0 0 0 0 0 0 0 0 0 127 0" result="hardAlpha"/>
<feOffset dy="9"/>
<feGaussianBlur stdDeviation="4.5"/>
<feColorMatrix type="matrix" values="0 0 0 0 0 0 0 0 0 0 0 0 0 0 0 0 0 0 0.05 0"/>
<feBlend mode="normal" in2="effect1_dropShadow_225_2861" result="effect2_dropShadow_225_2861"/>
<feColorMatrix in="SourceAlpha" type="matrix" values="0 0 0 0 0 0 0 0 0 0 0 0 0 0 0 0 0 0 127 0" result="hardAlpha"/>
<feOffset dy="19"/>
<feGaussianBlur stdDeviation="6"/>
<feColorMatrix type="matrix" values="0 0 0 0 0 0 0 0 0 0 0 0 0 0 0 0 0 0 0.03 0"/>
<feBlend mode="normal" in2="effect2_dropShadow_225_2861" result="effect3_dropShadow_225_2861"/>
<feColorMatrix in="SourceAlpha" type="matrix" values="0 0 0 0 0 0 0 0 0 0 0 0 0 0 0 0 0 0 127 0" result="hardAlpha"/>
<feOffset dy="34"/>
<feGaussianBlur stdDeviation="7"/>
<feColorMatrix type="matrix" values="0 0 0 0 0 0 0 0 0 0 0 0 0 0 0 0 0 0 0.01 0"/>
<feBlend mode="normal" in2="effect3_dropShadow_225_2861" result="effect4_dropShadow_225_2861"/>
<feBlend mode="normal" in="SourceGraphic" in2="effect4_dropShadow_225_2861" result="shape"/>
</filter>
<filter id="filter3_dddd_225_2861" x="552" y="254" width="108" height="131" filterUnits="userSpaceOnUse" color-interpolation-filters="sRGB">
<feFlood flood-opacity="0" result="BackgroundImageFix"/>
<feColorMatrix in="SourceAlpha" type="matrix" values="0 0 0 0 0 0 0 0 0 0 0 0 0 0 0 0 0 0 127 0" result="hardAlpha"/>
<feOffset dy="2"/>
<feGaussianBlur stdDeviation="2.5"/>
<feColorMatrix type="matrix" values="0 0 0 0 0 0 0 0 0 0 0 0 0 0 0 0 0 0 0.06 0"/>
<feBlend mode="normal" in2="BackgroundImageFix" result="effect1_dropShadow_225_2861"/>
<feColorMatrix in="SourceAlpha" type="matrix" values="0 0 0 0 0 0 0 0 0 0 0 0 0 0 0 0 0 0 127 0" result="hardAlpha"/>
<feOffset dy="9"/>
<feGaussianBlur stdDeviation="4.5"/>
<feColorMatrix type="matrix" values="0 0 0 0 0 0 0 0 0 0 0 0 0 0 0 0 0 0 0.05 0"/>
<feBlend mode="normal" in2="effect1_dropShadow_225_2861" result="effect2_dropShadow_225_2861"/>
<feColorMatrix in="SourceAlpha" type="matrix" values="0 0 0 0 0 0 0 0 0 0 0 0 0 0 0 0 0 0 127 0" result="hardAlpha"/>
<feOffset dy="19"/>
<feGaussianBlur stdDeviation="6"/>
<feColorMatrix type="matrix" values="0 0 0 0 0 0 0 0 0 0 0 0 0 0 0 0 0 0 0.03 0"/>
<feBlend mode="normal" in2="effect2_dropShadow_225_2861" result="effect3_dropShadow_225_2861"/>
<feColorMatrix in="SourceAlpha" type="matrix" values="0 0 0 0 0 0 0 0 0 0 0 0 0 0 0 0 0 0 127 0" result="hardAlpha"/>
<feOffset dy="34"/>
<feGaussianBlur stdDeviation="7"/>
<feColorMatrix type="matrix" values="0 0 0 0 0 0 0 0 0 0 0 0 0 0 0 0 0 0 0.01 0"/>
<feBlend mode="normal" in2="effect3_dropShadow_225_2861" result="effect4_dropShadow_225_2861"/>
<feBlend mode="normal" in="SourceGraphic" in2="effect4_dropShadow_225_2861" result="shape"/>
</filter>
<filter id="filter4_dddd_225_2861" x="524" y="369" width="108" height="131" filterUnits="userSpaceOnUse" color-interpolation-filters="sRGB">
<feFlood flood-opacity="0" result="BackgroundImageFix"/>
<feColorMatrix in="SourceAlpha" type="matrix" values="0 0 0 0 0 0 0 0 0 0 0 0 0 0 0 0 0 0 127 0" result="hardAlpha"/>
<feOffset dy="2"/>
<feGaussianBlur stdDeviation="2.5"/>
<feColorMatrix type="matrix" values="0 0 0 0 0 0 0 0 0 0 0 0 0 0 0 0 0 0 0.06 0"/>
<feBlend mode="normal" in2="BackgroundImageFix" result="effect1_dropShadow_225_2861"/>
<feColorMatrix in="SourceAlpha" type="matrix" values="0 0 0 0 0 0 0 0 0 0 0 0 0 0 0 0 0 0 127 0" result="hardAlpha"/>
<feOffset dy="9"/>
<feGaussianBlur stdDeviation="4.5"/>
<feColorMatrix type="matrix" values="0 0 0 0 0 0 0 0 0 0 0 0 0 0 0 0 0 0 0.05 0"/>
<feBlend mode="normal" in2="effect1_dropShadow_225_2861" result="effect2_dropShadow_225_2861"/>
<feColorMatrix in="SourceAlpha" type="matrix" values="0 0 0 0 0 0 0 0 0 0 0 0 0 0 0 0 0 0 127 0" result="hardAlpha"/>
<feOffset dy="19"/>
<feGaussianBlur stdDeviation="6"/>
<feColorMatrix type="matrix" values="0 0 0 0 0 0 0 0 0 0 0 0 0 0 0 0 0 0 0.03 0"/>
<feBlend mode="normal" in2="effect2_dropShadow_225_2861" result="effect3_dropShadow_225_2861"/>
<feColorMatrix in="SourceAlpha" type="matrix" values="0 0 0 0 0 0 0 0 0 0 0 0 0 0 0 0 0 0 127 0" result="hardAlpha"/>
<feOffset dy="34"/>
<feGaussianBlur stdDeviation="7"/>
<feColorMatrix type="matrix" values="0 0 0 0 0 0 0 0 0 0 0 0 0 0 0 0 0 0 0.01 0"/>
<feBlend mode="normal" in2="effect3_dropShadow_225_2861" result="effect4_dropShadow_225_2861"/>
<feBlend mode="normal" in="SourceGraphic" in2="effect4_dropShadow_225_2861" result="shape"/>
</filter>
<filter id="filter5_dddd_225_2861" x="506" y="34" width="108" height="131" filterUnits="userSpaceOnUse" color-interpolation-filters="sRGB">
<feFlood flood-opacity="0" result="BackgroundImageFix"/>
<feColorMatrix in="SourceAlpha" type="matrix" values="0 0 0 0 0 0 0 0 0 0 0 0 0 0 0 0 0 0 127 0" result="hardAlpha"/>
<feOffset dy="2"/>
<feGaussianBlur stdDeviation="2.5"/>
<feColorMatrix type="matrix" values="0 0 0 0 0 0 0 0 0 0 0 0 0 0 0 0 0 0 0.06 0"/>
<feBlend mode="normal" in2="BackgroundImageFix" result="effect1_dropShadow_225_2861"/>
<feColorMatrix in="SourceAlpha" type="matrix" values="0 0 0 0 0 0 0 0 0 0 0 0 0 0 0 0 0 0 127 0" result="hardAlpha"/>
<feOffset dy="9"/>
<feGaussianBlur stdDeviation="4.5"/>
<feColorMatrix type="matrix" values="0 0 0 0 0 0 0 0 0 0 0 0 0 0 0 0 0 0 0.05 0"/>
<feBlend mode="normal" in2="effect1_dropShadow_225_2861" result="effect2_dropShadow_225_2861"/>
<feColorMatrix in="SourceAlpha" type="matrix" values="0 0 0 0 0 0 0 0 0 0 0 0 0 0 0 0 0 0 127 0" result="hardAlpha"/>
<feOffset dy="19"/>
<feGaussianBlur stdDeviation="6"/>
<feColorMatrix type="matrix" values="0 0 0 0 0 0 0 0 0 0 0 0 0 0 0 0 0 0 0.03 0"/>
<feBlend mode="normal" in2="effect2_dropShadow_225_2861" result="effect3_dropShadow_225_2861"/>
<feColorMatrix in="SourceAlpha" type="matrix" values="0 0 0 0 0 0 0 0 0 0 0 0 0 0 0 0 0 0 127 0" result="hardAlpha"/>
<feOffset dy="34"/>
<feGaussianBlur stdDeviation="7"/>
<feColorMatrix type="matrix" values="0 0 0 0 0 0 0 0 0 0 0 0 0 0 0 0 0 0 0.01 0"/>
<feBlend mode="normal" in2="effect3_dropShadow_225_2861" result="effect4_dropShadow_225_2861"/>
<feBlend mode="normal" in="SourceGraphic" in2="effect4_dropShadow_225_2861" result="shape"/>
</filter>
<filter id="filter6_dddd_225_2861" x="552" y="144" width="108" height="131" filterUnits="userSpaceOnUse" color-interpolation-filters="sRGB">
<feFlood flood-opacity="0" result="BackgroundImageFix"/>
<feColorMatrix in="SourceAlpha" type="matrix" values="0 0 0 0 0 0 0 0 0 0 0 0 0 0 0 0 0 0 127 0" result="hardAlpha"/>
<feOffset dy="2"/>
<feGaussianBlur stdDeviation="2.5"/>
<feColorMatrix type="matrix" values="0 0 0 0 0 0 0 0 0 0 0 0 0 0 0 0 0 0 0.06 0"/>
<feBlend mode="normal" in2="BackgroundImageFix" result="effect1_dropShadow_225_2861"/>
<feColorMatrix in="SourceAlpha" type="matrix" values="0 0 0 0 0 0 0 0 0 0 0 0 0 0 0 0 0 0 127 0" result="hardAlpha"/>
<feOffset dy="9"/>
<feGaussianBlur stdDeviation="4.5"/>
<feColorMatrix type="matrix" values="0 0 0 0 0 0 0 0 0 0 0 0 0 0 0 0 0 0 0.05 0"/>
<feBlend mode="normal" in2="effect1_dropShadow_225_2861" result="effect2_dropShadow_225_2861"/>
<feColorMatrix in="SourceAlpha" type="matrix" values="0 0 0 0 0 0 0 0 0 0 0 0 0 0 0 0 0 0 127 0" result="hardAlpha"/>
<feOffset dy="19"/>
<feGaussianBlur stdDeviation="6"/>
<feColorMatrix type="matrix" values="0 0 0 0 0 0 0 0 0 0 0 0 0 0 0 0 0 0 0.03 0"/>
<feBlend mode="normal" in2="effect2_dropShadow_225_2861" result="effect3_dropShadow_225_2861"/>
<feColorMatrix in="SourceAlpha" type="matrix" values="0 0 0 0 0 0 0 0 0 0 0 0 0 0 0 0 0 0 127 0" result="hardAlpha"/>
<feOffset dy="34"/>
<feGaussianBlur stdDeviation="7"/>
<feColorMatrix type="matrix" values="0 0 0 0 0 0 0 0 0 0 0 0 0 0 0 0 0 0 0.01 0"/>
<feBlend mode="normal" in2="effect3_dropShadow_225_2861" result="effect4_dropShadow_225_2861"/>
<feBlend mode="normal" in="SourceGraphic" in2="effect4_dropShadow_225_2861" result="shape"/>
</filter>
<filter id="filter7_dddd_225_2861" x="381" y="366" width="108" height="131" filterUnits="userSpaceOnUse" color-interpolation-filters="sRGB">
<feFlood flood-opacity="0" result="BackgroundImageFix"/>
<feColorMatrix in="SourceAlpha" type="matrix" values="0 0 0 0 0 0 0 0 0 0 0 0 0 0 0 0 0 0 127 0" result="hardAlpha"/>
<feOffset dy="2"/>
<feGaussianBlur stdDeviation="2.5"/>
<feColorMatrix type="matrix" values="0 0 0 0 0 0 0 0 0 0 0 0 0 0 0 0 0 0 0.06 0"/>
<feBlend mode="normal" in2="BackgroundImageFix" result="effect1_dropShadow_225_2861"/>
<feColorMatrix in="SourceAlpha" type="matrix" values="0 0 0 0 0 0 0 0 0 0 0 0 0 0 0 0 0 0 127 0" result="hardAlpha"/>
<feOffset dy="9"/>
<feGaussianBlur stdDeviation="4.5"/>
<feColorMatrix type="matrix" values="0 0 0 0 0 0 0 0 0 0 0 0 0 0 0 0 0 0 0.05 0"/>
<feBlend mode="normal" in2="effect1_dropShadow_225_2861" result="effect2_dropShadow_225_2861"/>
<feColorMatrix in="SourceAlpha" type="matrix" values="0 0 0 0 0 0 0 0 0 0 0 0 0 0 0 0 0 0 127 0" result="hardAlpha"/>
<feOffset dy="19"/>
<feGaussianBlur stdDeviation="6"/>
<feColorMatrix type="matrix" values="0 0 0 0 0 0 0 0 0 0 0 0 0 0 0 0 0 0 0.03 0"/>
<feBlend mode="normal" in2="effect2_dropShadow_225_2861" result="effect3_dropShadow_225_2861"/>
<feColorMatrix in="SourceAlpha" type="matrix" values="0 0 0 0 0 0 0 0 0 0 0 0 0 0 0 0 0 0 127 0" result="hardAlpha"/>
<feOffset dy="34"/>
<feGaussianBlur stdDeviation="7"/>
<feColorMatrix type="matrix" values="0 0 0 0 0 0 0 0 0 0 0 0 0 0 0 0 0 0 0.01 0"/>
<feBlend mode="normal" in2="effect3_dropShadow_225_2861" result="effect4_dropShadow_225_2861"/>
<feBlend mode="normal" in="SourceGraphic" in2="effect4_dropShadow_225_2861" result="shape"/>
</filter>
<filter id="filter8_dddd_225_2861" x="260" y="392" width="108" height="131" filterUnits="userSpaceOnUse" color-interpolation-filters="sRGB">
<feFlood flood-opacity="0" result="BackgroundImageFix"/>
<feColorMatrix in="SourceAlpha" type="matrix" values="0 0 0 0 0 0 0 0 0 0 0 0 0 0 0 0 0 0 127 0" result="hardAlpha"/>
<feOffset dy="2"/>
<feGaussianBlur stdDeviation="2.5"/>
<feColorMatrix type="matrix" values="0 0 0 0 0 0 0 0 0 0 0 0 0 0 0 0 0 0 0.06 0"/>
<feBlend mode="normal" in2="BackgroundImageFix" result="effect1_dropShadow_225_2861"/>
<feColorMatrix in="SourceAlpha" type="matrix" values="0 0 0 0 0 0 0 0 0 0 0 0 0 0 0 0 0 0 127 0" result="hardAlpha"/>
<feOffset dy="9"/>
<feGaussianBlur stdDeviation="4.5"/>
<feColorMatrix type="matrix" values="0 0 0 0 0 0 0 0 0 0 0 0 0 0 0 0 0 0 0.05 0"/>
<feBlend mode="normal" in2="effect1_dropShadow_225_2861" result="effect2_dropShadow_225_2861"/>
<feColorMatrix in="SourceAlpha" type="matrix" values="0 0 0 0 0 0 0 0 0 0 0 0 0 0 0 0 0 0 127 0" result="hardAlpha"/>
<feOffset dy="19"/>
<feGaussianBlur stdDeviation="6"/>
<feColorMatrix type="matrix" values="0 0 0 0 0 0 0 0 0 0 0 0 0 0 0 0 0 0 0.03 0"/>
<feBlend mode="normal" in2="effect2_dropShadow_225_2861" result="effect3_dropShadow_225_2861"/>
<feColorMatrix in="SourceAlpha" type="matrix" values="0 0 0 0 0 0 0 0 0 0 0 0 0 0 0 0 0 0 127 0" result="hardAlpha"/>
<feOffset dy="34"/>
<feGaussianBlur stdDeviation="7"/>
<feColorMatrix type="matrix" values="0 0 0 0 0 0 0 0 0 0 0 0 0 0 0 0 0 0 0.01 0"/>
<feBlend mode="normal" in2="effect3_dropShadow_225_2861" result="effect4_dropShadow_225_2861"/>
<feBlend mode="normal" in="SourceGraphic" in2="effect4_dropShadow_225_2861" result="shape"/>
</filter>
<filter id="filter9_dddd_225_2861" x="143" y="362" width="108" height="131" filterUnits="userSpaceOnUse" color-interpolation-filters="sRGB">
<feFlood flood-opacity="0" result="BackgroundImageFix"/>
<feColorMatrix in="SourceAlpha" type="matrix" values="0 0 0 0 0 0 0 0 0 0 0 0 0 0 0 0 0 0 127 0" result="hardAlpha"/>
<feOffset dy="2"/>
<feGaussianBlur stdDeviation="2.5"/>
<feColorMatrix type="matrix" values="0 0 0 0 0 0 0 0 0 0 0 0 0 0 0 0 0 0 0.06 0"/>
<feBlend mode="normal" in2="BackgroundImageFix" result="effect1_dropShadow_225_2861"/>
<feColorMatrix in="SourceAlpha" type="matrix" values="0 0 0 0 0 0 0 0 0 0 0 0 0 0 0 0 0 0 127 0" result="hardAlpha"/>
<feOffset dy="9"/>
<feGaussianBlur stdDeviation="4.5"/>
<feColorMatrix type="matrix" values="0 0 0 0 0 0 0 0 0 0 0 0 0 0 0 0 0 0 0.05 0"/>
<feBlend mode="normal" in2="effect1_dropShadow_225_2861" result="effect2_dropShadow_225_2861"/>
<feColorMatrix in="SourceAlpha" type="matrix" values="0 0 0 0 0 0 0 0 0 0 0 0 0 0 0 0 0 0 127 0" result="hardAlpha"/>
<feOffset dy="19"/>
<feGaussianBlur stdDeviation="6"/>
<feColorMatrix type="matrix" values="0 0 0 0 0 0 0 0 0 0 0 0 0 0 0 0 0 0 0.03 0"/>
<feBlend mode="normal" in2="effect2_dropShadow_225_2861" result="effect3_dropShadow_225_2861"/>
<feColorMatrix in="SourceAlpha" type="matrix" values="0 0 0 0 0 0 0 0 0 0 0 0 0 0 0 0 0 0 127 0" result="hardAlpha"/>
<feOffset dy="34"/>
<feGaussianBlur stdDeviation="7"/>
<feColorMatrix type="matrix" values="0 0 0 0 0 0 0 0 0 0 0 0 0 0 0 0 0 0 0.01 0"/>
<feBlend mode="normal" in2="effect3_dropShadow_225_2861" result="effect4_dropShadow_225_2861"/>
<feBlend mode="normal" in="SourceGraphic" in2="effect4_dropShadow_225_2861" result="shape"/>
</filter>
<filter id="filter10_dddd_225_2861" x="35" y="294" width="108" height="131" filterUnits="userSpaceOnUse" color-interpolation-filters="sRGB">
<feFlood flood-opacity="0" result="BackgroundImageFix"/>
<feColorMatrix in="SourceAlpha" type="matrix" values="0 0 0 0 0 0 0 0 0 0 0 0 0 0 0 0 0 0 127 0" result="hardAlpha"/>
<feOffset dy="2"/>
<feGaussianBlur stdDeviation="2.5"/>
<feColorMatrix type="matrix" values="0 0 0 0 0 0 0 0 0 0 0 0 0 0 0 0 0 0 0.06 0"/>
<feBlend mode="normal" in2="BackgroundImageFix" result="effect1_dropShadow_225_2861"/>
<feColorMatrix in="SourceAlpha" type="matrix" values="0 0 0 0 0 0 0 0 0 0 0 0 0 0 0 0 0 0 127 0" result="hardAlpha"/>
<feOffset dy="9"/>
<feGaussianBlur stdDeviation="4.5"/>
<feColorMatrix type="matrix" values="0 0 0 0 0 0 0 0 0 0 0 0 0 0 0 0 0 0 0.05 0"/>
<feBlend mode="normal" in2="effect1_dropShadow_225_2861" result="effect2_dropShadow_225_2861"/>
<feColorMatrix in="SourceAlpha" type="matrix" values="0 0 0 0 0 0 0 0 0 0 0 0 0 0 0 0 0 0 127 0" result="hardAlpha"/>
<feOffset dy="19"/>
<feGaussianBlur stdDeviation="6"/>
<feColorMatrix type="matrix" values="0 0 0 0 0 0 0 0 0 0 0 0 0 0 0 0 0 0 0.03 0"/>
<feBlend mode="normal" in2="effect2_dropShadow_225_2861" result="effect3_dropShadow_225_2861"/>
<feColorMatrix in="SourceAlpha" type="matrix" values="0 0 0 0 0 0 0 0 0 0 0 0 0 0 0 0 0 0 127 0" result="hardAlpha"/>
<feOffset dy="34"/>
<feGaussianBlur stdDeviation="7"/>
<feColorMatrix type="matrix" values="0 0 0 0 0 0 0 0 0 0 0 0 0 0 0 0 0 0 0.01 0"/>
<feBlend mode="normal" in2="effect3_dropShadow_225_2861" result="effect4_dropShadow_225_2861"/>
<feBlend mode="normal" in="SourceGraphic" in2="effect4_dropShadow_225_2861" result="shape"/>
</filter>
<filter id="filter11_dddd_225_2861" x="75" y="192" width="108" height="131" filterUnits="userSpaceOnUse" color-interpolation-filters="sRGB">
<feFlood flood-opacity="0" result="BackgroundImageFix"/>
<feColorMatrix in="SourceAlpha" type="matrix" values="0 0 0 0 0 0 0 0 0 0 0 0 0 0 0 0 0 0 127 0" result="hardAlpha"/>
<feOffset dy="2"/>
<feGaussianBlur stdDeviation="2.5"/>
<feColorMatrix type="matrix" values="0 0 0 0 0 0 0 0 0 0 0 0 0 0 0 0 0 0 0.06 0"/>
<feBlend mode="normal" in2="BackgroundImageFix" result="effect1_dropShadow_225_2861"/>
<feColorMatrix in="SourceAlpha" type="matrix" values="0 0 0 0 0 0 0 0 0 0 0 0 0 0 0 0 0 0 127 0" result="hardAlpha"/>
<feOffset dy="9"/>
<feGaussianBlur stdDeviation="4.5"/>
<feColorMatrix type="matrix" values="0 0 0 0 0 0 0 0 0 0 0 0 0 0 0 0 0 0 0.05 0"/>
<feBlend mode="normal" in2="effect1_dropShadow_225_2861" result="effect2_dropShadow_225_2861"/>
<feColorMatrix in="SourceAlpha" type="matrix" values="0 0 0 0 0 0 0 0 0 0 0 0 0 0 0 0 0 0 127 0" result="hardAlpha"/>
<feOffset dy="19"/>
<feGaussianBlur stdDeviation="6"/>
<feColorMatrix type="matrix" values="0 0 0 0 0 0 0 0 0 0 0 0 0 0 0 0 0 0 0.03 0"/>
<feBlend mode="normal" in2="effect2_dropShadow_225_2861" result="effect3_dropShadow_225_2861"/>
<feColorMatrix in="SourceAlpha" type="matrix" values="0 0 0 0 0 0 0 0 0 0 0 0 0 0 0 0 0 0 127 0" result="hardAlpha"/>
<feOffset dy="34"/>
<feGaussianBlur stdDeviation="7"/>
<feColorMatrix type="matrix" values="0 0 0 0 0 0 0 0 0 0 0 0 0 0 0 0 0 0 0.01 0"/>
<feBlend mode="normal" in2="effect3_dropShadow_225_2861" result="effect4_dropShadow_225_2861"/>
<feBlend mode="normal" in="SourceGraphic" in2="effect4_dropShadow_225_2861" result="shape"/>
</filter>
<filter id="filter12_dddd_225_2861" x="126" y="72" width="108" height="131" filterUnits="userSpaceOnUse" color-interpolation-filters="sRGB">
<feFlood flood-opacity="0" result="BackgroundImageFix"/>
<feColorMatrix in="SourceAlpha" type="matrix" values="0 0 0 0 0 0 0 0 0 0 0 0 0 0 0 0 0 0 127 0" result="hardAlpha"/>
<feOffset dy="2"/>
<feGaussianBlur stdDeviation="2.5"/>
<feColorMatrix type="matrix" values="0 0 0 0 0 0 0 0 0 0 0 0 0 0 0 0 0 0 0.06 0"/>
<feBlend mode="normal" in2="BackgroundImageFix" result="effect1_dropShadow_225_2861"/>
<feColorMatrix in="SourceAlpha" type="matrix" values="0 0 0 0 0 0 0 0 0 0 0 0 0 0 0 0 0 0 127 0" result="hardAlpha"/>
<feOffset dy="9"/>
<feGaussianBlur stdDeviation="4.5"/>
<feColorMatrix type="matrix" values="0 0 0 0 0 0 0 0 0 0 0 0 0 0 0 0 0 0 0.05 0"/>
<feBlend mode="normal" in2="effect1_dropShadow_225_2861" result="effect2_dropShadow_225_2861"/>
<feColorMatrix in="SourceAlpha" type="matrix" values="0 0 0 0 0 0 0 0 0 0 0 0 0 0 0 0 0 0 127 0" result="hardAlpha"/>
<feOffset dy="19"/>
<feGaussianBlur stdDeviation="6"/>
<feColorMatrix type="matrix" values="0 0 0 0 0 0 0 0 0 0 0 0 0 0 0 0 0 0 0.03 0"/>
<feBlend mode="normal" in2="effect2_dropShadow_225_2861" result="effect3_dropShadow_225_2861"/>
<feColorMatrix in="SourceAlpha" type="matrix" values="0 0 0 0 0 0 0 0 0 0 0 0 0 0 0 0 0 0 127 0" result="hardAlpha"/>
<feOffset dy="34"/>
<feGaussianBlur stdDeviation="7"/>
<feColorMatrix type="matrix" values="0 0 0 0 0 0 0 0 0 0 0 0 0 0 0 0 0 0 0.01 0"/>
<feBlend mode="normal" in2="effect3_dropShadow_225_2861" result="effect4_dropShadow_225_2861"/>
<feBlend mode="normal" in="SourceGraphic" in2="effect4_dropShadow_225_2861" result="shape"/>
</filter>
<linearGradient id="paint0_linear_225_2861" x1="101.133" y1="349.598" x2="54.9326" y2="285.198" gradientUnits="userSpaceOnUse">
<stop stop-color="#4643B9"/>
<stop offset="1" stop-color="#1E8AFF"/>
</linearGradient>
<linearGradient id="paint1_linear_225_2861" x1="79.3658" y1="357.543" x2="28.4317" y2="348.671" gradientUnits="userSpaceOnUse">
<stop stop-color="#FF002E"/>
<stop offset="1" stop-color="#FFADA1"/>
</linearGradient>
<linearGradient id="paint2_linear_225_2861" x1="210.692" y1="450.073" x2="223.514" y2="345.208" gradientUnits="userSpaceOnUse">
<stop stop-color="#3C3BA0"/>
<stop offset="0.49" stop-color="#1E8AFF"/>
<stop offset="1" stop-color="#00B2FF"/>
</linearGradient>
<linearGradient id="paint3_linear_225_2861" x1="99.7695" y1="311.876" x2="148.537" y2="337.076" gradientUnits="userSpaceOnUse">
<stop stop-color="#FFEA1A"/>
<stop offset="1" stop-color="#FFB800"/>
</linearGradient>
<clipPath id="clip0_225_2861">
<rect width="56" height="27.3114" fill="white" transform="translate(268 82.3438)"/>
</clipPath>
<clipPath id="clip1_225_2861">
<rect width="56" height="17.8889" fill="white" transform="translate(578 291.111)"/>
</clipPath>
<clipPath id="clip2_225_2861">
<rect width="56" height="56" fill="white" transform="translate(532 49)"/>
</clipPath>
<clipPath id="clip3_225_2861">
<rect width="49" height="56" fill="white" transform="translate(581.5 159)"/>
</clipPath>
<clipPath id="clip4_225_2861">
<rect width="67.2108" height="56" fill="white" transform="translate(163.395 377)"/>
</clipPath>
<clipPath id="clip5_225_2861">
<rect width="56" height="16.576" fill="white" transform="translate(101 226.713)"/>
</clipPath>
<clipPath id="clip6_225_2861">
<rect width="56" height="56" fill="white" transform="translate(152 87)"/>
</clipPath>
</defs>
</svg>
