<svg width="80" height="80" viewBox="0 0 80 80" fill="none" xmlns="http://www.w3.org/2000/svg">
<rect width="80" height="80" rx="24" fill="#6788EC"/>
<path d="M39.1284 36.6815C40.6799 36.6815 42.216 36.9844 43.6494 37.5727C45.0827 38.161 46.3851 39.0234 47.4821 40.1105C48.5791 41.1976 49.4494 42.4882 50.0431 43.9086C50.6368 45.329 50.9424 46.8513 50.9424 48.3887C50.9424 49.9261 50.6368 51.4484 50.0431 52.8687C49.4494 54.2891 48.5791 55.5797 47.4821 56.6668C46.3851 57.7539 45.0827 58.6163 43.6494 59.2046C42.216 59.793 40.6799 60.0959 39.1284 60.0959C37.577 60.0959 36.0408 59.793 34.6075 59.2046C33.7759 58.8633 32.9888 58.429 32.2598 57.9127V69.625H27.3145V47.8442H27.3273C27.3908 46.4927 27.6903 45.161 28.2138 43.9086C28.8075 42.4882 29.6777 41.1976 30.7748 40.1105C31.8718 39.0234 33.1742 38.161 34.6075 37.5727C36.0408 36.9844 37.577 36.6815 39.1284 36.6815ZM60.2837 48.4001C60.2837 50.2053 61.0073 51.9366 62.2955 53.2131C63.5836 54.4895 65.3306 55.2066 67.1523 55.2066H69.625V60.1073H67.1523C64.019 60.1073 61.0142 58.8738 58.7986 56.6783C56.5831 54.4827 55.3383 51.505 55.3383 48.4001V27.1523H60.2837V48.4001ZM39.1284 41.5822C38.2264 41.5822 37.3332 41.7583 36.4999 42.1004C35.6666 42.4424 34.9094 42.9437 34.2716 43.5757C33.6338 44.2077 33.1279 44.9581 32.7828 45.7839C32.4376 46.6097 32.2598 47.4948 32.2598 48.3887L32.262 48.5562C32.2828 49.3929 32.4592 50.2193 32.7828 50.9935C33.1279 51.8193 33.6338 52.5696 34.2716 53.2016C34.9094 53.8336 35.6666 54.3349 36.4999 54.677C37.3332 55.019 38.2264 55.1952 39.1284 55.1952C40.0304 55.1952 40.9237 55.019 41.757 54.677C42.5903 54.3349 43.3475 53.8336 43.9853 53.2016C44.6231 52.5696 45.1289 51.8193 45.4741 50.9935C45.8193 50.1677 45.997 49.2825 45.997 48.3887C45.997 47.4948 45.8193 46.6097 45.4741 45.7839C45.1289 44.9581 44.6231 44.2077 43.9853 43.5757C43.3475 42.9437 42.5903 42.4424 41.757 42.1004C40.9237 41.7583 40.0304 41.5822 39.1284 41.5822Z" fill="white"/>
</svg>
